<?xml version="1.0" encoding="utf-8" standalone="no"?>
<!DOCTYPE svg PUBLIC "-//W3C//DTD SVG 1.1//EN"
  "http://www.w3.org/Graphics/SVG/1.1/DTD/svg11.dtd">
<svg xmlns:xlink="http://www.w3.org/1999/xlink" width="696.473844pt" height="701.249625pt" viewBox="0 0 696.473844 701.249625" xmlns="http://www.w3.org/2000/svg" version="1.1">
 <metadata>
  <rdf:RDF xmlns:dc="http://purl.org/dc/elements/1.1/" xmlns:cc="http://creativecommons.org/ns#" xmlns:rdf="http://www.w3.org/1999/02/22-rdf-syntax-ns#">
   <cc:Work>
    <dc:type rdf:resource="http://purl.org/dc/dcmitype/StillImage"/>
    <dc:date>2026-04-11T13:11:12.369765</dc:date>
    <dc:format>image/svg+xml</dc:format>
    <dc:creator>
     <cc:Agent>
      <dc:title>Matplotlib v3.10.8, https://matplotlib.org/</dc:title>
     </cc:Agent>
    </dc:creator>
   </cc:Work>
  </rdf:RDF>
 </metadata>
 <defs>
  <style type="text/css">*{stroke-linejoin: round; stroke-linecap: butt}</style>
 </defs>
 <g id="figure_1">
  <g id="patch_1">
   <path d="M 0 701.249625
L 696.473844 701.249625
L 696.473844 0
L 0 0
z
" style="fill: #ffffff"/>
  </g>
  <g id="axes_1">
   <g id="patch_2">
    <path d="M 35.50625 668.485562
L 670.038 668.485562
L 670.038 33.953812
L 35.50625 33.953812
z
" style="fill: #ffffff"/>
   </g>
   <g id="patch_3">
    <path d="M 35.50625 668.485562
L 670.038 668.485562
L 670.038 33.953812
L 35.50625 33.953812
z
" clip-path="url(#pabb7e51a36)" style="fill: #d3d3d3; opacity: 0.3; stroke: #000000; stroke-width: 2; stroke-linejoin: miter"/>
   </g>
   <g id="patch_4">
    <path d="M 311.643439 521.243614
C 299.661491 509.427786 287.229784 499.046409 277.086257 492.38586
C 266.942729 485.725312 259.915556 483.329396 257.552391 485.725785
C 255.189225 488.122175 257.683009 495.115215 264.484515 505.164771
C 271.286022 515.214326 281.839938 527.499895 293.821886 539.315723
C 305.803834 551.131551 318.235541 561.512928 328.379068 568.173477
C 338.522595 574.834025 345.549768 577.229941 347.912933 574.833552
C 350.276099 572.437162 347.782315 565.444122 340.980809 555.394566
C 334.179303 545.345011 323.625387 533.059442 311.643439 521.243614
z
" clip-path="url(#pabb7e51a36)" style="fill: #808080; opacity: 0.7; stroke: #000000; stroke-linejoin: miter"/>
   </g>
   <g id="patch_5">
    <path d="M 535.749265 590.79424
C 552.437871 588.632918 568.273461 585.233737 579.76843 581.345326
C 591.263399 577.456915 597.479234 573.396747 597.046969 570.059026
C 596.614705 566.721305 589.569634 564.378541 577.46335 563.546701
C 565.357067 562.714861 549.177996 563.461862 532.489391 565.623184
C 515.800785 567.784506 499.965196 571.183687 488.470227 575.072098
C 476.975258 578.960509 470.759422 583.020677 471.191687 586.358398
C 471.623951 589.696119 478.669023 592.038883 490.775306 592.870723
C 502.881589 593.702562 519.06066 592.955562 535.749265 590.79424
z
" clip-path="url(#pabb7e51a36)" style="fill: #808080; opacity: 0.7; stroke: #000000; stroke-linejoin: miter"/>
   </g>
   <g id="patch_6">
    <path d="M 263.582237 267.559785
C 250.175494 257.389234 236.507891 248.699184 225.589559 243.403518
C 214.671227 238.107853 207.393599 236.638938 205.359489 239.320287
C 203.325379 242.001636 206.700862 248.614327 214.742528 257.701992
C 222.784194 266.789658 234.835476 277.61033 248.242219 287.780881
C 261.648962 297.951432 275.316565 306.641481 286.234897 311.937147
C 297.153229 317.232813 304.430857 318.701727 306.464967 316.020379
C 308.499077 313.33903 305.123594 306.726339 297.081928 297.638673
C 289.040262 288.551008 276.98898 277.730336 263.582237 267.559785
z
" clip-path="url(#pabb7e51a36)" style="fill: #808080; opacity: 0.7; stroke: #000000; stroke-linejoin: miter"/>
   </g>
   <g id="patch_7">
    <path d="M 387.125933 293.817422
C 373.516219 283.920122 359.675644 275.508296 348.652433 270.434552
C 337.629223 265.360807 330.323373 264.039394 328.343913 266.761336
C 326.364453 269.483279 329.872996 276.026344 338.096827 284.949496
C 346.320659 293.872649 358.588338 304.447353 372.198052 314.344654
C 385.807766 324.241955 399.648341 332.653781 410.671551 337.727525
C 421.694762 342.801269 429.000612 344.122683 430.980072 341.40074
C 432.959532 338.678797 429.450988 332.135732 421.227157 323.21258
C 413.003326 314.289427 400.735646 303.714723 387.125933 293.817422
z
" clip-path="url(#pabb7e51a36)" style="fill: #808080; opacity: 0.7; stroke: #000000; stroke-linejoin: miter"/>
   </g>
   <g id="patch_8">
    <path d="M 370.795488 138.492399
C 383.223586 127.146773 394.242803 115.27676 401.426282 105.496592
C 408.609761 95.716424 411.371003 88.82461 409.101878 86.33899
C 406.832753 83.85337 399.718524 85.976885 389.326017 92.241856
C 378.93351 98.506826 366.111228 108.401745 353.68313 119.747371
C 341.255031 131.092997 330.235815 142.963011 323.052336 152.743178
C 315.868857 162.523346 313.107614 169.415161 315.376739 171.90078
C 317.645865 174.3864 324.760094 172.262885 335.1526 165.997914
C 345.545107 159.732944 358.367389 149.838025 370.795488 138.492399
z
" clip-path="url(#pabb7e51a36)" style="fill: #808080; opacity: 0.7; stroke: #000000; stroke-linejoin: miter"/>
   </g>
   <g id="patch_9">
    <path d="M 221.816769 557.70068
C 207.623563 548.660009 193.291382 541.116206 181.976726 536.730709
C 170.662069 532.345211 163.288727 531.476074 161.480592 534.314716
C 159.672458 537.153357 163.577157 543.468014 172.334726 551.867957
C 181.092295 560.2679 193.987716 570.06731 208.180923 579.107982
C 222.37413 588.148654 236.70631 595.692456 248.020967 600.077954
C 259.335624 604.463451 266.708966 605.332588 268.5171 602.493947
C 270.325235 599.655305 266.420535 593.340648 257.662966 584.940705
C 248.905398 576.540763 236.009976 566.741352 221.816769 557.70068
z
" clip-path="url(#pabb7e51a36)" style="fill: #808080; opacity: 0.7; stroke: #000000; stroke-linejoin: miter"/>
   </g>
   <g id="patch_10">
    <path d="M 302.013603 427.345666
C 285.214504 426.360199 269.022885 426.749832 257.004762 428.428753
C 244.986639 430.107675 238.123239 432.938807 237.926146 436.298627
C 237.729052 439.658447 244.214358 443.272639 255.953748 446.345221
C 267.693139 449.417802 283.728146 451.69791 300.527245 452.683377
C 317.326344 453.668844 333.517962 453.279211 345.536085 451.600289
C 357.554208 449.921368 364.417608 447.090236 364.614702 443.730416
C 364.811795 440.370596 358.32649 436.756404 346.587099 433.683822
C 334.847708 430.611241 318.812701 428.331133 302.013603 427.345666
z
" clip-path="url(#pabb7e51a36)" style="fill: #808080; opacity: 0.7; stroke: #000000; stroke-linejoin: miter"/>
   </g>
   <g id="patch_11">
    <path d="M 504.117356 125.028375
L 641.43941 59.193941
L 619.494599 13.419923
L 482.172545 79.254357
z
" clip-path="url(#pabb7e51a36)" style="opacity: 0.5; stroke: #000000; stroke-linejoin: miter"/>
   </g>
   <g id="patch_12">
    <path d="M 485.168141 467.899884
L 637.33539 461.846155
L 635.31748 411.123739
L 483.150232 417.177467
z
" clip-path="url(#pabb7e51a36)" style="opacity: 0.5; stroke: #000000; stroke-linejoin: miter"/>
   </g>
   <g id="patch_13">
    <path d="M 286.556454 351.963042
C 288.239252 351.963042 289.853353 351.294459 291.043271 350.104542
C 292.233189 348.914624 292.901772 347.300522 292.901772 345.617725
C 292.901772 343.934927 292.233189 342.320825 291.043271 341.130908
C 289.853353 339.94099 288.239252 339.272407 286.556454 339.272407
C 284.873656 339.272407 283.259555 339.94099 282.069637 341.130908
C 280.879719 342.320825 280.211137 343.934927 280.211137 345.617725
C 280.211137 347.300522 280.879719 348.914624 282.069637 350.104542
C 283.259555 351.294459 284.873656 351.963042 286.556454 351.963042
z
" clip-path="url(#pabb7e51a36)" style="fill: #ff0000; opacity: 0.8; stroke: #000000; stroke-linejoin: miter"/>
   </g>
   <g id="patch_14">
    <path d="M 375.723463 162.963609
C 377.406261 162.963609 379.020363 162.295027 380.21028 161.105109
C 381.400198 159.915191 382.068781 158.30109 382.068781 156.618292
C 382.068781 154.935494 381.400198 153.321393 380.21028 152.131475
C 379.020363 150.941557 377.406261 150.272974 375.723463 150.272974
C 374.040666 150.272974 372.426564 150.941557 371.236646 152.131475
C 370.046729 153.321393 369.378146 154.935494 369.378146 156.618292
C 369.378146 158.30109 370.046729 159.915191 371.236646 161.105109
C 372.426564 162.295027 374.040666 162.963609 375.723463 162.963609
z
" clip-path="url(#pabb7e51a36)" style="fill: #ff0000; opacity: 0.8; stroke: #000000; stroke-linejoin: miter"/>
   </g>
   <g id="patch_15">
    <path d="M 263.010638 455.753715
C 264.693436 455.753715 266.307537 455.085132 267.497455 453.895214
C 268.687373 452.705297 269.355956 451.091195 269.355956 449.408397
C 269.355956 447.7256 268.687373 446.111498 267.497455 444.92158
C 266.307537 443.731663 264.693436 443.06308 263.010638 443.06308
C 261.32784 443.06308 259.713739 443.731663 258.523821 444.92158
C 257.333903 446.111498 256.665321 447.7256 256.665321 449.408397
C 256.665321 451.091195 257.333903 452.705297 258.523821 453.895214
C 259.713739 455.085132 261.32784 455.753715 263.010638 455.753715
z
" clip-path="url(#pabb7e51a36)" style="fill: #ff0000; opacity: 0.8; stroke: #000000; stroke-linejoin: miter"/>
   </g>
   <g id="patch_16">
    <path d="M 77.897904 391.021899
C 79.580702 391.021899 81.194804 390.353317 82.384721 389.163399
C 83.574639 387.973481 84.243222 386.35938 84.243222 384.676582
C 84.243222 382.993784 83.574639 381.379683 82.384721 380.189765
C 81.194804 378.999847 79.580702 378.331264 77.897904 378.331264
C 76.215106 378.331264 74.601005 378.999847 73.411087 380.189765
C 72.221169 381.379683 71.552587 382.993784 71.552587 384.676582
C 71.552587 386.35938 72.221169 387.973481 73.411087 389.163399
C 74.601005 390.353317 76.215106 391.021899 77.897904 391.021899
z
" clip-path="url(#pabb7e51a36)" style="fill: #ff0000; opacity: 0.8; stroke: #000000; stroke-linejoin: miter"/>
   </g>
   <g id="patch_17">
    <path d="M 592.659864 603.629963
C 594.342661 603.629963 595.956763 602.96138 597.146681 601.771462
C 598.336598 600.581544 599.005181 598.967443 599.005181 597.284645
C 599.005181 595.601847 598.336598 593.987746 597.146681 592.797828
C 595.956763 591.60791 594.342661 590.939328 592.659864 590.939328
C 590.977066 590.939328 589.362964 591.60791 588.173047 592.797828
C 586.983129 593.987746 586.314546 595.601847 586.314546 597.284645
C 586.314546 598.967443 586.983129 600.581544 588.173047 601.771462
C 589.362964 602.96138 590.977066 603.629963 592.659864 603.629963
z
" clip-path="url(#pabb7e51a36)" style="fill: #ff0000; opacity: 0.8; stroke: #000000; stroke-linejoin: miter"/>
   </g>
   <g id="patch_18">
    <path d="M 296.009139 120.974359
C 297.691937 120.974359 299.306039 120.305776 300.495956 119.115859
C 301.685874 117.925941 302.354457 116.311839 302.354457 114.629042
C 302.354457 112.946244 301.685874 111.332142 300.495956 110.142225
C 299.306039 108.952307 297.691937 108.283724 296.009139 108.283724
C 294.326341 108.283724 292.71224 108.952307 291.522322 110.142225
C 290.332404 111.332142 289.663822 112.946244 289.663822 114.629042
C 289.663822 116.311839 290.332404 117.925941 291.522322 119.115859
C 292.71224 120.305776 294.326341 120.974359 296.009139 120.974359
z
" clip-path="url(#pabb7e51a36)" style="fill: #ff0000; opacity: 0.8; stroke: #000000; stroke-linejoin: miter"/>
   </g>
   <g id="patch_19">
    <path d="M 441.035234 580.266688
C 442.718032 580.266688 444.332133 579.598106 445.522051 578.408188
C 446.711969 577.21827 447.380551 575.604169 447.380551 573.921371
C 447.380551 572.238573 446.711969 570.624472 445.522051 569.434554
C 444.332133 568.244636 442.718032 567.576053 441.035234 567.576053
C 439.352436 567.576053 437.738334 568.244636 436.548417 569.434554
C 435.358499 570.624472 434.689916 572.238573 434.689916 573.921371
C 434.689916 575.604169 435.358499 577.21827 436.548417 578.408188
C 437.738334 579.598106 439.352436 580.266688 441.035234 580.266688
z
" clip-path="url(#pabb7e51a36)" style="fill: #ff0000; opacity: 0.8; stroke: #000000; stroke-linejoin: miter"/>
   </g>
   <g id="patch_20">
    <path d="M 409.432232 280.655657
C 411.11503 280.655657 412.729131 279.987074 413.919049 278.797157
C 415.108967 277.607239 415.77755 275.993137 415.77755 274.31034
C 415.77755 272.627542 415.108967 271.01344 413.919049 269.823523
C 412.729131 268.633605 411.11503 267.965022 409.432232 267.965022
C 407.749434 267.965022 406.135333 268.633605 404.945415 269.823523
C 403.755497 271.01344 403.086915 272.627542 403.086915 274.31034
C 403.086915 275.993137 403.755497 277.607239 404.945415 278.797157
C 406.135333 279.987074 407.749434 280.655657 409.432232 280.655657
z
" clip-path="url(#pabb7e51a36)" style="fill: #ff0000; opacity: 0.8; stroke: #000000; stroke-linejoin: miter"/>
   </g>
   <g id="patch_21">
    <path d="M 256.698564 532.588296
C 258.381362 532.588296 259.995463 531.919713 261.185381 530.729795
C 262.375299 529.539878 263.043881 527.925776 263.043881 526.242978
C 263.043881 524.560181 262.375299 522.946079 261.185381 521.756161
C 259.995463 520.566244 258.381362 519.897661 256.698564 519.897661
C 255.015766 519.897661 253.401664 520.566244 252.211747 521.756161
C 251.021829 522.946079 250.353246 524.560181 250.353246 526.242978
C 250.353246 527.925776 251.021829 529.539878 252.211747 530.729795
C 253.401664 531.919713 255.015766 532.588296 256.698564 532.588296
z
" clip-path="url(#pabb7e51a36)" style="fill: #ff0000; opacity: 0.8; stroke: #000000; stroke-linejoin: miter"/>
   </g>
   <g id="patch_22">
    <path d="M 629.66863 442.973413
C 631.351428 442.973413 632.96553 442.30483 634.155447 441.114912
C 635.345365 439.924994 636.013948 438.310893 636.013948 436.628095
C 636.013948 434.945297 635.345365 433.331196 634.155447 432.141278
C 632.96553 430.95136 631.351428 430.282778 629.66863 430.282778
C 627.985832 430.282778 626.371731 430.95136 625.181813 432.141278
C 623.991896 433.331196 623.323313 434.945297 623.323313 436.628095
C 623.323313 438.310893 623.991896 439.924994 625.181813 441.114912
C 626.371731 442.30483 627.985832 442.973413 629.66863 442.973413
z
" clip-path="url(#pabb7e51a36)" style="fill: #ff0000; opacity: 0.8; stroke: #000000; stroke-linejoin: miter"/>
   </g>
   <g id="patch_23">
    <path d="M 138.824047 91.89863
C 140.506845 91.89863 142.120947 91.230047 143.310864 90.04013
C 144.500782 88.850212 145.169365 87.23611 145.169365 85.553313
C 145.169365 83.870515 144.500782 82.256413 143.310864 81.066496
C 142.120947 79.876578 140.506845 79.207995 138.824047 79.207995
C 137.14125 79.207995 135.527148 79.876578 134.33723 81.066496
C 133.147313 82.256413 132.47873 83.870515 132.47873 85.553313
C 132.47873 87.23611 133.147313 88.850212 134.33723 90.04013
C 135.527148 91.230047 137.14125 91.89863 138.824047 91.89863
z
" clip-path="url(#pabb7e51a36)" style="fill: #ff0000; opacity: 0.8; stroke: #000000; stroke-linejoin: miter"/>
   </g>
   <g id="patch_24">
    <path d="M 279.507898 380.199662
C 281.190696 380.199662 282.804797 379.531079 283.994715 378.341161
C 285.184633 377.151244 285.853216 375.537142 285.853216 373.854344
C 285.853216 372.171547 285.184633 370.557445 283.994715 369.367527
C 282.804797 368.17761 281.190696 367.509027 279.507898 367.509027
C 277.8251 367.509027 276.210999 368.17761 275.021081 369.367527
C 273.831163 370.557445 273.162581 372.171547 273.162581 373.854344
C 273.162581 375.537142 273.831163 377.151244 275.021081 378.341161
C 276.210999 379.531079 277.8251 380.199662 279.507898 380.199662
z
" clip-path="url(#pabb7e51a36)" style="fill: #ff0000; opacity: 0.8; stroke: #000000; stroke-linejoin: miter"/>
   </g>
   <g id="patch_25">
    <path d="M 486.57412 369.998628
C 488.256917 369.998628 489.871019 369.330046 491.060937 368.140128
C 492.250854 366.95021 492.919437 365.336109 492.919437 363.653311
C 492.919437 361.970513 492.250854 360.356412 491.060937 359.166494
C 489.871019 357.976576 488.256917 357.307993 486.57412 357.307993
C 484.891322 357.307993 483.27722 357.976576 482.087303 359.166494
C 480.897385 360.356412 480.228802 361.970513 480.228802 363.653311
C 480.228802 365.336109 480.897385 366.95021 482.087303 368.140128
C 483.27722 369.330046 484.891322 369.998628 486.57412 369.998628
z
" clip-path="url(#pabb7e51a36)" style="fill: #ff0000; opacity: 0.8; stroke: #000000; stroke-linejoin: miter"/>
   </g>
   <g id="patch_26">
    <path d="M 66.477788 476.777763
C 68.160586 476.777763 69.774687 476.109181 70.964605 474.919263
C 72.154523 473.729345 72.823106 472.115244 72.823106 470.432446
C 72.823106 468.749648 72.154523 467.135546 70.964605 465.945629
C 69.774687 464.755711 68.160586 464.087128 66.477788 464.087128
C 64.79499 464.087128 63.180889 464.755711 61.990971 465.945629
C 60.801053 467.135546 60.132471 468.749648 60.132471 470.432446
C 60.132471 472.115244 60.801053 473.729345 61.990971 474.919263
C 63.180889 476.109181 64.79499 476.777763 66.477788 476.777763
z
" clip-path="url(#pabb7e51a36)" style="fill: #ff0000; opacity: 0.8; stroke: #000000; stroke-linejoin: miter"/>
   </g>
   <g id="patch_27">
    <path d="M 480.632688 225.362723
C 482.315485 225.362723 483.929587 224.694141 485.119505 223.504223
C 486.309422 222.314305 486.978005 220.700204 486.978005 219.017406
C 486.978005 217.334608 486.309422 215.720507 485.119505 214.530589
C 483.929587 213.340671 482.315485 212.672088 480.632688 212.672088
C 478.94989 212.672088 477.335788 213.340671 476.145871 214.530589
C 474.955953 215.720507 474.28737 217.334608 474.28737 219.017406
C 474.28737 220.700204 474.955953 222.314305 476.145871 223.504223
C 477.335788 224.694141 478.94989 225.362723 480.632688 225.362723
z
" clip-path="url(#pabb7e51a36)" style="fill: #ff0000; opacity: 0.8; stroke: #000000; stroke-linejoin: miter"/>
   </g>
   <g id="patch_28">
    <path d="M 517.356758 650.198722
C 519.039556 650.198722 520.653657 649.530139 521.843575 648.340222
C 523.033493 647.150304 523.702075 645.536202 523.702075 643.853405
C 523.702075 642.170607 523.033493 640.556505 521.843575 639.366588
C 520.653657 638.17667 519.039556 637.508087 517.356758 637.508087
C 515.67396 637.508087 514.059859 638.17667 512.869941 639.366588
C 511.680023 640.556505 511.01144 642.170607 511.01144 643.853405
C 511.01144 645.536202 511.680023 647.150304 512.869941 648.340222
C 514.059859 649.530139 515.67396 650.198722 517.356758 650.198722
z
" clip-path="url(#pabb7e51a36)" style="fill: #ff0000; opacity: 0.8; stroke: #000000; stroke-linejoin: miter"/>
   </g>
   <g id="patch_29">
    <path d="M 110.367455 217.674689
C 112.050253 217.674689 113.664354 217.006106 114.854272 215.816188
C 116.04419 214.62627 116.712773 213.012169 116.712773 211.329371
C 116.712773 209.646573 116.04419 208.032472 114.854272 206.842554
C 113.664354 205.652636 112.050253 204.984054 110.367455 204.984054
C 108.684657 204.984054 107.070556 205.652636 105.880638 206.842554
C 104.69072 208.032472 104.022138 209.646573 104.022138 211.329371
C 104.022138 213.012169 104.69072 214.62627 105.880638 215.816188
C 107.070556 217.006106 108.684657 217.674689 110.367455 217.674689
z
" clip-path="url(#pabb7e51a36)" style="fill: #ff0000; opacity: 0.8; stroke: #000000; stroke-linejoin: miter"/>
   </g>
   <g id="patch_30">
    <path d="M 314.550674 241.420482
C 316.233472 241.420482 317.847573 240.751899 319.037491 239.561982
C 320.227409 238.372064 320.895991 236.757963 320.895991 235.075165
C 320.895991 233.392367 320.227409 231.778265 319.037491 230.588348
C 317.847573 229.39843 316.233472 228.729847 314.550674 228.729847
C 312.867876 228.729847 311.253775 229.39843 310.063857 230.588348
C 308.873939 231.778265 308.205356 233.392367 308.205356 235.075165
C 308.205356 236.757963 308.873939 238.372064 310.063857 239.561982
C 311.253775 240.751899 312.867876 241.420482 314.550674 241.420482
z
" clip-path="url(#pabb7e51a36)" style="fill: #ff0000; opacity: 0.8; stroke: #000000; stroke-linejoin: miter"/>
   </g>
   <g id="patch_31">
    <path d="M 184.323941 286.635436
C 186.006739 286.635436 187.62084 285.966854 188.810758 284.776936
C 190.000676 283.587018 190.669259 281.972917 190.669259 280.290119
C 190.669259 278.607321 190.000676 276.99322 188.810758 275.803302
C 187.62084 274.613384 186.006739 273.944801 184.323941 273.944801
C 182.641143 273.944801 181.027042 274.613384 179.837124 275.803302
C 178.647206 276.99322 177.978624 278.607321 177.978624 280.290119
C 177.978624 281.972917 178.647206 283.587018 179.837124 284.776936
C 181.027042 285.966854 182.641143 286.635436 184.323941 286.635436
z
" clip-path="url(#pabb7e51a36)" style="fill: #ff0000; opacity: 0.8; stroke: #000000; stroke-linejoin: miter"/>
   </g>
   <g id="patch_32">
    <path d="M 280.348785 504.51557
C 282.031583 504.51557 283.645684 503.846987 284.835602 502.657069
C 286.02552 501.467151 286.694102 499.85305 286.694102 498.170252
C 286.694102 496.487454 286.02552 494.873353 284.835602 493.683435
C 283.645684 492.493517 282.031583 491.824935 280.348785 491.824935
C 278.665987 491.824935 277.051886 492.493517 275.861968 493.683435
C 274.67205 494.873353 274.003467 496.487454 274.003467 498.170252
C 274.003467 499.85305 274.67205 501.467151 275.861968 502.657069
C 277.051886 503.846987 278.665987 504.51557 280.348785 504.51557
z
" clip-path="url(#pabb7e51a36)" style="fill: #ff0000; opacity: 0.8; stroke: #000000; stroke-linejoin: miter"/>
   </g>
   <g id="patch_33">
    <path d="M 427.28052 406.234282
C 428.963318 406.234282 430.577419 405.565699 431.767337 404.375781
C 432.957255 403.185864 433.625837 401.571762 433.625837 399.888964
C 433.625837 398.206166 432.957255 396.592065 431.767337 395.402147
C 430.577419 394.212229 428.963318 393.543647 427.28052 393.543647
C 425.597722 393.543647 423.98362 394.212229 422.793703 395.402147
C 421.603785 396.592065 420.935202 398.206166 420.935202 399.888964
C 420.935202 401.571762 421.603785 403.185864 422.793703 404.375781
C 423.98362 405.565699 425.597722 406.234282 427.28052 406.234282
z
" clip-path="url(#pabb7e51a36)" style="fill: #ff0000; opacity: 0.8; stroke: #000000; stroke-linejoin: miter"/>
   </g>
   <g id="patch_34">
    <path d="M 367.049826 640.318289
C 368.732624 640.318289 370.346725 639.649707 371.536643 638.459789
C 372.726561 637.269871 373.395143 635.65577 373.395143 633.972972
C 373.395143 632.290174 372.726561 630.676073 371.536643 629.486155
C 370.346725 628.296237 368.732624 627.627654 367.049826 627.627654
C 365.367028 627.627654 363.752927 628.296237 362.563009 629.486155
C 361.373091 630.676073 360.704508 632.290174 360.704508 633.972972
C 360.704508 635.65577 361.373091 637.269871 362.563009 638.459789
C 363.752927 639.649707 365.367028 640.318289 367.049826 640.318289
z
" clip-path="url(#pabb7e51a36)" style="fill: #ff0000; opacity: 0.8; stroke: #000000; stroke-linejoin: miter"/>
   </g>
   <g id="patch_35">
    <path d="M 182.05907 67.452557
C 183.741868 67.452557 185.355969 66.783974 186.545887 65.594057
C 187.735805 64.404139 188.404387 62.790037 188.404387 61.107239
C 188.404387 59.424442 187.735805 57.81034 186.545887 56.620422
C 185.355969 55.430505 183.741868 54.761922 182.05907 54.761922
C 180.376272 54.761922 178.762171 55.430505 177.572253 56.620422
C 176.382335 57.81034 175.713752 59.424442 175.713752 61.107239
C 175.713752 62.790037 176.382335 64.404139 177.572253 65.594057
C 178.762171 66.783974 180.376272 67.452557 182.05907 67.452557
z
" clip-path="url(#pabb7e51a36)" style="fill: #ff0000; opacity: 0.8; stroke: #000000; stroke-linejoin: miter"/>
   </g>
   <g id="patch_36">
    <path d="M 587.228493 181.621237
C 588.911291 181.621237 590.525392 180.952654 591.71531 179.762737
C 592.905228 178.572819 593.57381 176.958718 593.57381 175.27592
C 593.57381 173.593122 592.905228 171.97902 591.71531 170.789103
C 590.525392 169.599185 588.911291 168.930602 587.228493 168.930602
C 585.545695 168.930602 583.931593 169.599185 582.741676 170.789103
C 581.551758 171.97902 580.883175 173.593122 580.883175 175.27592
C 580.883175 176.958718 581.551758 178.572819 582.741676 179.762737
C 583.931593 180.952654 585.545695 181.621237 587.228493 181.621237
z
" clip-path="url(#pabb7e51a36)" style="fill: #ff0000; opacity: 0.8; stroke: #000000; stroke-linejoin: miter"/>
   </g>
   <g id="patch_37">
    <path d="M 616.678463 469.746301
C 618.361261 469.746301 619.975363 469.077719 621.16528 467.887801
C 622.355198 466.697883 623.023781 465.083782 623.023781 463.400984
C 623.023781 461.718186 622.355198 460.104085 621.16528 458.914167
C 619.975363 457.724249 618.361261 457.055666 616.678463 457.055666
C 614.995666 457.055666 613.381564 457.724249 612.191646 458.914167
C 611.001729 460.104085 610.333146 461.718186 610.333146 463.400984
C 610.333146 465.083782 611.001729 466.697883 612.191646 467.887801
C 613.381564 469.077719 614.995666 469.746301 616.678463 469.746301
z
" clip-path="url(#pabb7e51a36)" style="fill: #ff0000; opacity: 0.8; stroke: #000000; stroke-linejoin: miter"/>
   </g>
   <g id="patch_38">
    <path d="M 547.076702 210.811845
C 548.7595 210.811845 550.373601 210.143263 551.563519 208.953345
C 552.753437 207.763427 553.42202 206.149326 553.42202 204.466528
C 553.42202 202.78373 552.753437 201.169629 551.563519 199.979711
C 550.373601 198.789793 548.7595 198.12121 547.076702 198.12121
C 545.393904 198.12121 543.779803 198.789793 542.589885 199.979711
C 541.399967 201.169629 540.731385 202.78373 540.731385 204.466528
C 540.731385 206.149326 541.399967 207.763427 542.589885 208.953345
C 543.779803 210.143263 545.393904 210.811845 547.076702 210.811845
z
" clip-path="url(#pabb7e51a36)" style="fill: #ff0000; opacity: 0.8; stroke: #000000; stroke-linejoin: miter"/>
   </g>
   <g id="patch_39">
    <path d="M 574.67027 56.272164
C 576.353068 56.272164 577.967169 55.603581 579.157087 54.413663
C 580.347005 53.223746 581.015588 51.609644 581.015588 49.926846
C 581.015588 48.244048 580.347005 46.629947 579.157087 45.440029
C 577.967169 44.250111 576.353068 43.581529 574.67027 43.581529
C 572.987472 43.581529 571.373371 44.250111 570.183453 45.440029
C 568.993535 46.629947 568.324953 48.244048 568.324953 49.926846
C 568.324953 51.609644 568.993535 53.223746 570.183453 54.413663
C 571.373371 55.603581 572.987472 56.272164 574.67027 56.272164
z
" clip-path="url(#pabb7e51a36)" style="fill: #ff0000; opacity: 0.8; stroke: #000000; stroke-linejoin: miter"/>
   </g>
   <g id="patch_40">
    <path d="M 233.842683 274.582952
C 235.52548 274.582952 237.139582 273.91437 238.3295 272.724452
C 239.519417 271.534534 240.188 269.920433 240.188 268.237635
C 240.188 266.554837 239.519417 264.940736 238.3295 263.750818
C 237.139582 262.5609 235.52548 261.892317 233.842683 261.892317
C 232.159885 261.892317 230.545783 262.5609 229.355865 263.750818
C 228.165948 264.940736 227.497365 266.554837 227.497365 268.237635
C 227.497365 269.920433 228.165948 271.534534 229.355865 272.724452
C 230.545783 273.91437 232.159885 274.582952 233.842683 274.582952
z
" clip-path="url(#pabb7e51a36)" style="fill: #ff0000; opacity: 0.8; stroke: #000000; stroke-linejoin: miter"/>
   </g>
   <g id="patch_41">
    <path d="M 373.851811 617.106746
C 375.534608 617.106746 377.14871 616.438163 378.338628 615.248246
C 379.528545 614.058328 380.197128 612.444226 380.197128 610.761429
C 380.197128 609.078631 379.528545 607.464529 378.338628 606.274612
C 377.14871 605.084694 375.534608 604.416111 373.851811 604.416111
C 372.169013 604.416111 370.554911 605.084694 369.364994 606.274612
C 368.175076 607.464529 367.506493 609.078631 367.506493 610.761429
C 367.506493 612.444226 368.175076 614.058328 369.364994 615.248246
C 370.554911 616.438163 372.169013 617.106746 373.851811 617.106746
z
" clip-path="url(#pabb7e51a36)" style="fill: #ff0000; opacity: 0.8; stroke: #000000; stroke-linejoin: miter"/>
   </g>
   <g id="patch_42">
    <path d="M 633.51396 415.119465
C 635.196758 415.119465 636.810859 414.450882 638.000777 413.260964
C 639.190695 412.071047 639.859278 410.456945 639.859278 408.774147
C 639.859278 407.09135 639.190695 405.477248 638.000777 404.28733
C 636.810859 403.097413 635.196758 402.42883 633.51396 402.42883
C 631.831162 402.42883 630.217061 403.097413 629.027143 404.28733
C 627.837225 405.477248 627.168643 407.09135 627.168643 408.774147
C 627.168643 410.456945 627.837225 412.071047 629.027143 413.260964
C 630.217061 414.450882 631.831162 415.119465 633.51396 415.119465
z
" clip-path="url(#pabb7e51a36)" style="fill: #ff0000; opacity: 0.8; stroke: #000000; stroke-linejoin: miter"/>
   </g>
   <g id="patch_43">
    <path d="M 59.961868 517.589423
C 61.644666 517.589423 63.258767 516.920841 64.448685 515.730923
C 65.638603 514.541005 66.307186 512.926904 66.307186 511.244106
C 66.307186 509.561308 65.638603 507.947207 64.448685 506.757289
C 63.258767 505.567371 61.644666 504.898788 59.961868 504.898788
C 58.27907 504.898788 56.664969 505.567371 55.475051 506.757289
C 54.285133 507.947207 53.616551 509.561308 53.616551 511.244106
C 53.616551 512.926904 54.285133 514.541005 55.475051 515.730923
C 56.664969 516.920841 58.27907 517.589423 59.961868 517.589423
z
" clip-path="url(#pabb7e51a36)" style="fill: #ff0000; opacity: 0.8; stroke: #000000; stroke-linejoin: miter"/>
   </g>
   <g id="patch_44">
    <path d="M 385.214984 238.457051
C 386.897782 238.457051 388.511884 237.788468 389.701801 236.598551
C 390.891719 235.408633 391.560302 233.794531 391.560302 232.111734
C 391.560302 230.428936 390.891719 228.814834 389.701801 227.624917
C 388.511884 226.434999 386.897782 225.766416 385.214984 225.766416
C 383.532187 225.766416 381.918085 226.434999 380.728167 227.624917
C 379.53825 228.814834 378.869667 230.428936 378.869667 232.111734
C 378.869667 233.794531 379.53825 235.408633 380.728167 236.598551
C 381.918085 237.788468 383.532187 238.457051 385.214984 238.457051
z
" clip-path="url(#pabb7e51a36)" style="fill: #ff0000; opacity: 0.8; stroke: #000000; stroke-linejoin: miter"/>
   </g>
   <g id="patch_45">
    <path d="M 558.493964 386.499744
C 560.176762 386.499744 561.790863 385.831161 562.980781 384.641243
C 564.170699 383.451325 564.839282 381.837224 564.839282 380.154426
C 564.839282 378.471628 564.170699 376.857527 562.980781 375.667609
C 561.790863 374.477691 560.176762 373.809109 558.493964 373.809109
C 556.811166 373.809109 555.197065 374.477691 554.007147 375.667609
C 552.817229 376.857527 552.148647 378.471628 552.148647 380.154426
C 552.148647 381.837224 552.817229 383.451325 554.007147 384.641243
C 555.197065 385.831161 556.811166 386.499744 558.493964 386.499744
z
" clip-path="url(#pabb7e51a36)" style="fill: #ff0000; opacity: 0.8; stroke: #000000; stroke-linejoin: miter"/>
   </g>
   <g id="patch_46">
    <path d="M 232.028127 532.362717
C 233.710925 532.362717 235.325026 531.694134 236.514944 530.504216
C 237.704862 529.314299 238.373445 527.700197 238.373445 526.017399
C 238.373445 524.334602 237.704862 522.7205 236.514944 521.530582
C 235.325026 520.340665 233.710925 519.672082 232.028127 519.672082
C 230.345329 519.672082 228.731228 520.340665 227.54131 521.530582
C 226.351392 522.7205 225.68281 524.334602 225.68281 526.017399
C 225.68281 527.700197 226.351392 529.314299 227.54131 530.504216
C 228.731228 531.694134 230.345329 532.362717 232.028127 532.362717
z
" clip-path="url(#pabb7e51a36)" style="fill: #ff0000; opacity: 0.8; stroke: #000000; stroke-linejoin: miter"/>
   </g>
   <g id="patch_47">
    <path d="M 266.804382 640.28412
C 268.48718 640.28412 270.101281 639.615537 271.291199 638.425619
C 272.481117 637.235701 273.149699 635.6216 273.149699 633.938802
C 273.149699 632.256004 272.481117 630.641903 271.291199 629.451985
C 270.101281 628.262067 268.48718 627.593485 266.804382 627.593485
C 265.121584 627.593485 263.507483 628.262067 262.317565 629.451985
C 261.127647 630.641903 260.459064 632.256004 260.459064 633.938802
C 260.459064 635.6216 261.127647 637.235701 262.317565 638.425619
C 263.507483 639.615537 265.121584 640.28412 266.804382 640.28412
z
" clip-path="url(#pabb7e51a36)" style="fill: #ff0000; opacity: 0.8; stroke: #000000; stroke-linejoin: miter"/>
   </g>
   <g id="patch_48">
    <path d="M 445.498732 267.460046
C 447.181529 267.460046 448.795631 266.791464 449.985549 265.601546
C 451.175466 264.411628 451.844049 262.797527 451.844049 261.114729
C 451.844049 259.431931 451.175466 257.81783 449.985549 256.627912
C 448.795631 255.437994 447.181529 254.769411 445.498732 254.769411
C 443.815934 254.769411 442.201832 255.437994 441.011915 256.627912
C 439.821997 257.81783 439.153414 259.431931 439.153414 261.114729
C 439.153414 262.797527 439.821997 264.411628 441.011915 265.601546
C 442.201832 266.791464 443.815934 267.460046 445.498732 267.460046
z
" clip-path="url(#pabb7e51a36)" style="fill: #ff0000; opacity: 0.8; stroke: #000000; stroke-linejoin: miter"/>
   </g>
   <g id="patch_49">
    <path d="M 223.276246 315.19392
C 224.959044 315.19392 226.573145 314.525337 227.763063 313.33542
C 228.952981 312.145502 229.621564 310.531401 229.621564 308.848603
C 229.621564 307.165805 228.952981 305.551703 227.763063 304.361786
C 226.573145 303.171868 224.959044 302.503285 223.276246 302.503285
C 221.593448 302.503285 219.979347 303.171868 218.789429 304.361786
C 217.599511 305.551703 216.930929 307.165805 216.930929 308.848603
C 216.930929 310.531401 217.599511 312.145502 218.789429 313.33542
C 219.979347 314.525337 221.593448 315.19392 223.276246 315.19392
z
" clip-path="url(#pabb7e51a36)" style="fill: #ff0000; opacity: 0.8; stroke: #000000; stroke-linejoin: miter"/>
   </g>
   <g id="patch_50">
    <path d="M 53.841779 493.774985
C 55.524576 493.774985 57.138678 493.106402 58.328596 491.916484
C 59.518513 490.726567 60.187096 489.112465 60.187096 487.429667
C 60.187096 485.74687 59.518513 484.132768 58.328596 482.94285
C 57.138678 481.752933 55.524576 481.08435 53.841779 481.08435
C 52.158981 481.08435 50.544879 481.752933 49.354962 482.94285
C 48.165044 484.132768 47.496461 485.74687 47.496461 487.429667
C 47.496461 489.112465 48.165044 490.726567 49.354962 491.916484
C 50.544879 493.106402 52.158981 493.774985 53.841779 493.774985
z
" clip-path="url(#pabb7e51a36)" style="fill: #ff0000; opacity: 0.8; stroke: #000000; stroke-linejoin: miter"/>
   </g>
   <g id="patch_51">
    <path d="M 495.20484 633.237593
C 496.887638 633.237593 498.501739 632.56901 499.691657 631.379092
C 500.881575 630.189175 501.550157 628.575073 501.550157 626.892275
C 501.550157 625.209478 500.881575 623.595376 499.691657 622.405458
C 498.501739 621.215541 496.887638 620.546958 495.20484 620.546958
C 493.522042 620.546958 491.90794 621.215541 490.718023 622.405458
C 489.528105 623.595376 488.859522 625.209478 488.859522 626.892275
C 488.859522 628.575073 489.528105 630.189175 490.718023 631.379092
C 491.90794 632.56901 493.522042 633.237593 495.20484 633.237593
z
" clip-path="url(#pabb7e51a36)" style="fill: #ff0000; opacity: 0.8; stroke: #000000; stroke-linejoin: miter"/>
   </g>
   <g id="patch_52">
    <path d="M 555.100109 137.058249
C 556.782907 137.058249 558.397008 136.389667 559.586926 135.199749
C 560.776844 134.009831 561.445427 132.39573 561.445427 130.712932
C 561.445427 129.030134 560.776844 127.416032 559.586926 126.226115
C 558.397008 125.036197 556.782907 124.367614 555.100109 124.367614
C 553.417311 124.367614 551.80321 125.036197 550.613292 126.226115
C 549.423374 127.416032 548.754792 129.030134 548.754792 130.712932
C 548.754792 132.39573 549.423374 134.009831 550.613292 135.199749
C 551.80321 136.389667 553.417311 137.058249 555.100109 137.058249
z
" clip-path="url(#pabb7e51a36)" style="fill: #ff0000; opacity: 0.8; stroke: #000000; stroke-linejoin: miter"/>
   </g>
   <g id="patch_53">
    <path d="M 276.544008 201.076149
C 278.226806 201.076149 279.840908 200.407566 281.030825 199.217649
C 282.220743 198.027731 282.889326 196.413629 282.889326 194.730831
C 282.889326 193.048034 282.220743 191.433932 281.030825 190.244014
C 279.840908 189.054097 278.226806 188.385514 276.544008 188.385514
C 274.86121 188.385514 273.247109 189.054097 272.057191 190.244014
C 270.867274 191.433932 270.198691 193.048034 270.198691 194.730831
C 270.198691 196.413629 270.867274 198.027731 272.057191 199.217649
C 273.247109 200.407566 274.86121 201.076149 276.544008 201.076149
z
" clip-path="url(#pabb7e51a36)" style="fill: #ff0000; opacity: 0.8; stroke: #000000; stroke-linejoin: miter"/>
   </g>
   <g id="patch_54">
    <path d="M 119.524801 505.262402
C 121.207599 505.262402 122.8217 504.593819 124.011618 503.403901
C 125.201536 502.213984 125.870118 500.599882 125.870118 498.917084
C 125.870118 497.234286 125.201536 495.620185 124.011618 494.430267
C 122.8217 493.24035 121.207599 492.571767 119.524801 492.571767
C 117.842003 492.571767 116.227901 493.24035 115.037984 494.430267
C 113.848066 495.620185 113.179483 497.234286 113.179483 498.917084
C 113.179483 500.599882 113.848066 502.213984 115.037984 503.403901
C 116.227901 504.593819 117.842003 505.262402 119.524801 505.262402
z
" clip-path="url(#pabb7e51a36)" style="fill: #ff0000; opacity: 0.8; stroke: #000000; stroke-linejoin: miter"/>
   </g>
   <g id="patch_55">
    <path d="M 79.997409 370.551938
C 81.680207 370.551938 83.294308 369.883356 84.484226 368.693438
C 85.674144 367.50352 86.342726 365.889419 86.342726 364.206621
C 86.342726 362.523823 85.674144 360.909722 84.484226 359.719804
C 83.294308 358.529886 81.680207 357.861303 79.997409 357.861303
C 78.314611 357.861303 76.70051 358.529886 75.510592 359.719804
C 74.320674 360.909722 73.652091 362.523823 73.652091 364.206621
C 73.652091 365.889419 74.320674 367.50352 75.510592 368.693438
C 76.70051 369.883356 78.314611 370.551938 79.997409 370.551938
z
" clip-path="url(#pabb7e51a36)" style="fill: #ff0000; opacity: 0.8; stroke: #000000; stroke-linejoin: miter"/>
   </g>
   <g id="patch_56">
    <path d="M 83.58649 625.684301
C 85.269288 625.684301 86.883389 625.015718 88.073307 623.8258
C 89.263224 622.635882 89.931807 621.021781 89.931807 619.338983
C 89.931807 617.656185 89.263224 616.042084 88.073307 614.852166
C 86.883389 613.662248 85.269288 612.993666 83.58649 612.993666
C 81.903692 612.993666 80.28959 613.662248 79.099673 614.852166
C 77.909755 616.042084 77.241172 617.656185 77.241172 619.338983
C 77.241172 621.021781 77.909755 622.635882 79.099673 623.8258
C 80.28959 625.015718 81.903692 625.684301 83.58649 625.684301
z
" clip-path="url(#pabb7e51a36)" style="fill: #ff0000; opacity: 0.8; stroke: #000000; stroke-linejoin: miter"/>
   </g>
   <g id="patch_57">
    <path d="M 166.959277 92.718077
C 168.642075 92.718077 170.256177 92.049495 171.446094 90.859577
C 172.636012 89.669659 173.304595 88.055558 173.304595 86.37276
C 173.304595 84.689962 172.636012 83.075861 171.446094 81.885943
C 170.256177 80.696025 168.642075 80.027442 166.959277 80.027442
C 165.276479 80.027442 163.662378 80.696025 162.47246 81.885943
C 161.282543 83.075861 160.61396 84.689962 160.61396 86.37276
C 160.61396 88.055558 161.282543 89.669659 162.47246 90.859577
C 163.662378 92.049495 165.276479 92.718077 166.959277 92.718077
z
" clip-path="url(#pabb7e51a36)" style="fill: #ff0000; opacity: 0.8; stroke: #000000; stroke-linejoin: miter"/>
   </g>
   <g id="patch_58">
    <path d="M 223.22129 232.825162
C 224.904088 232.825162 226.518189 232.156579 227.708107 230.966662
C 228.898025 229.776744 229.566607 228.162643 229.566607 226.479845
C 229.566607 224.797047 228.898025 223.182945 227.708107 221.993028
C 226.518189 220.80311 224.904088 220.134527 223.22129 220.134527
C 221.538492 220.134527 219.924391 220.80311 218.734473 221.993028
C 217.544555 223.182945 216.875972 224.797047 216.875972 226.479845
C 216.875972 228.162643 217.544555 229.776744 218.734473 230.966662
C 219.924391 232.156579 221.538492 232.825162 223.22129 232.825162
z
" clip-path="url(#pabb7e51a36)" style="fill: #ff0000; opacity: 0.8; stroke: #000000; stroke-linejoin: miter"/>
   </g>
   <g id="patch_59">
    <path d="M 439.726702 630.53989
C 441.4095 630.53989 443.023601 629.871307 444.213519 628.68139
C 445.403437 627.491472 446.072019 625.877371 446.072019 624.194573
C 446.072019 622.511775 445.403437 620.897673 444.213519 619.707756
C 443.023601 618.517838 441.4095 617.849255 439.726702 617.849255
C 438.043904 617.849255 436.429803 618.517838 435.239885 619.707756
C 434.049967 620.897673 433.381384 622.511775 433.381384 624.194573
C 433.381384 625.877371 434.049967 627.491472 435.239885 628.68139
C 436.429803 629.871307 438.043904 630.53989 439.726702 630.53989
z
" clip-path="url(#pabb7e51a36)" style="fill: #ff0000; opacity: 0.8; stroke: #000000; stroke-linejoin: miter"/>
   </g>
   <g id="patch_60">
    <path d="M 175.089922 539.618696
C 176.772719 539.618696 178.386821 538.950113 179.576739 537.760195
C 180.766656 536.570278 181.435239 534.956176 181.435239 533.273378
C 181.435239 531.59058 180.766656 529.976479 179.576739 528.786561
C 178.386821 527.596643 176.772719 526.928061 175.089922 526.928061
C 173.407124 526.928061 171.793022 527.596643 170.603105 528.786561
C 169.413187 529.976479 168.744604 531.59058 168.744604 533.273378
C 168.744604 534.956176 169.413187 536.570278 170.603105 537.760195
C 171.793022 538.950113 173.407124 539.618696 175.089922 539.618696
z
" clip-path="url(#pabb7e51a36)" style="fill: #ff0000; opacity: 0.8; stroke: #000000; stroke-linejoin: miter"/>
   </g>
   <g id="patch_61">
    <path d="M 441.542294 103.883208
C 443.225092 103.883208 444.839193 103.214626 446.029111 102.024708
C 447.219029 100.83479 447.887611 99.220689 447.887611 97.537891
C 447.887611 95.855093 447.219029 94.240992 446.029111 93.051074
C 444.839193 91.861156 443.225092 91.192573 441.542294 91.192573
C 439.859496 91.192573 438.245395 91.861156 437.055477 93.051074
C 435.865559 94.240992 435.196976 95.855093 435.196976 97.537891
C 435.196976 99.220689 435.865559 100.83479 437.055477 102.024708
C 438.245395 103.214626 439.859496 103.883208 441.542294 103.883208
z
" clip-path="url(#pabb7e51a36)" style="fill: #ff0000; opacity: 0.8; stroke: #000000; stroke-linejoin: miter"/>
   </g>
   <g id="patch_62">
    <path d="M 150.219287 409.70411
C 151.902085 409.70411 153.516186 409.035527 154.706104 407.845609
C 155.896022 406.655692 156.564605 405.04159 156.564605 403.358792
C 156.564605 401.675995 155.896022 400.061893 154.706104 398.871975
C 153.516186 397.682058 151.902085 397.013475 150.219287 397.013475
C 148.536489 397.013475 146.922388 397.682058 145.73247 398.871975
C 144.542552 400.061893 143.87397 401.675995 143.87397 403.358792
C 143.87397 405.04159 144.542552 406.655692 145.73247 407.845609
C 146.922388 409.035527 148.536489 409.70411 150.219287 409.70411
z
" clip-path="url(#pabb7e51a36)" style="fill: #ff0000; opacity: 0.8; stroke: #000000; stroke-linejoin: miter"/>
   </g>
   <g id="matplotlib.axis_1">
    <g id="xtick_1">
     <g id="line2d_1">
      <path d="M 35.50625 668.485562
L 35.50625 33.953812
" clip-path="url(#pabb7e51a36)" style="fill: none; stroke: #b0b0b0; stroke-opacity: 0.3; stroke-width: 0.8; stroke-linecap: square"/>
     </g>
     <g id="line2d_2">
      <defs>
       <path id="mfcb8169fdb" d="M 0 0
L 0 3.5
" style="stroke: #6c7a8d; stroke-width: 0.8"/>
      </defs>
      <g>
       <use xlink:href="#mfcb8169fdb" x="35.50625" y="668.485562" style="fill: #6c7a8d; stroke: #6c7a8d; stroke-width: 0.8"/>
      </g>
     </g>
     <g id="text_1">
      <text style="font-size: 9px; font-family: 'Times New Roman', 'DejaVu Serif', serif; text-anchor: middle; fill: #6c7a8d" x="35.50625" y="682.324156" transform="rotate(-0 35.50625 682.324156)">0</text>
     </g>
    </g>
    <g id="xtick_2">
     <g id="line2d_3">
      <path d="M 162.4126 668.485562
L 162.4126 33.953812
" clip-path="url(#pabb7e51a36)" style="fill: none; stroke: #b0b0b0; stroke-opacity: 0.3; stroke-width: 0.8; stroke-linecap: square"/>
     </g>
     <g id="line2d_4">
      <g>
       <use xlink:href="#mfcb8169fdb" x="162.4126" y="668.485562" style="fill: #6c7a8d; stroke: #6c7a8d; stroke-width: 0.8"/>
      </g>
     </g>
     <g id="text_2">
      <text style="font-size: 9px; font-family: 'Times New Roman', 'DejaVu Serif', serif; text-anchor: middle; fill: #6c7a8d" x="162.4126" y="682.324156" transform="rotate(-0 162.4126 682.324156)">2</text>
     </g>
    </g>
    <g id="xtick_3">
     <g id="line2d_5">
      <path d="M 289.31895 668.485562
L 289.31895 33.953812
" clip-path="url(#pabb7e51a36)" style="fill: none; stroke: #b0b0b0; stroke-opacity: 0.3; stroke-width: 0.8; stroke-linecap: square"/>
     </g>
     <g id="line2d_6">
      <g>
       <use xlink:href="#mfcb8169fdb" x="289.31895" y="668.485562" style="fill: #6c7a8d; stroke: #6c7a8d; stroke-width: 0.8"/>
      </g>
     </g>
     <g id="text_3">
      <text style="font-size: 9px; font-family: 'Times New Roman', 'DejaVu Serif', serif; text-anchor: middle; fill: #6c7a8d" x="289.31895" y="682.324156" transform="rotate(-0 289.31895 682.324156)">4</text>
     </g>
    </g>
    <g id="xtick_4">
     <g id="line2d_7">
      <path d="M 416.2253 668.485562
L 416.2253 33.953812
" clip-path="url(#pabb7e51a36)" style="fill: none; stroke: #b0b0b0; stroke-opacity: 0.3; stroke-width: 0.8; stroke-linecap: square"/>
     </g>
     <g id="line2d_8">
      <g>
       <use xlink:href="#mfcb8169fdb" x="416.2253" y="668.485562" style="fill: #6c7a8d; stroke: #6c7a8d; stroke-width: 0.8"/>
      </g>
     </g>
     <g id="text_4">
      <text style="font-size: 9px; font-family: 'Times New Roman', 'DejaVu Serif', serif; text-anchor: middle; fill: #6c7a8d" x="416.2253" y="682.324156" transform="rotate(-0 416.2253 682.324156)">6</text>
     </g>
    </g>
    <g id="xtick_5">
     <g id="line2d_9">
      <path d="M 543.13165 668.485562
L 543.13165 33.953812
" clip-path="url(#pabb7e51a36)" style="fill: none; stroke: #b0b0b0; stroke-opacity: 0.3; stroke-width: 0.8; stroke-linecap: square"/>
     </g>
     <g id="line2d_10">
      <g>
       <use xlink:href="#mfcb8169fdb" x="543.13165" y="668.485562" style="fill: #6c7a8d; stroke: #6c7a8d; stroke-width: 0.8"/>
      </g>
     </g>
     <g id="text_5">
      <text style="font-size: 9px; font-family: 'Times New Roman', 'DejaVu Serif', serif; text-anchor: middle; fill: #6c7a8d" x="543.13165" y="682.324156" transform="rotate(-0 543.13165 682.324156)">8</text>
     </g>
    </g>
    <g id="xtick_6">
     <g id="line2d_11">
      <path d="M 670.038 668.485562
L 670.038 33.953812
" clip-path="url(#pabb7e51a36)" style="fill: none; stroke: #b0b0b0; stroke-opacity: 0.3; stroke-width: 0.8; stroke-linecap: square"/>
     </g>
     <g id="line2d_12">
      <g>
       <use xlink:href="#mfcb8169fdb" x="670.038" y="668.485562" style="fill: #6c7a8d; stroke: #6c7a8d; stroke-width: 0.8"/>
      </g>
     </g>
     <g id="text_6">
      <text style="font-size: 9px; font-family: 'Times New Roman', 'DejaVu Serif', serif; text-anchor: middle; fill: #6c7a8d" x="670.038" y="682.324156" transform="rotate(-0 670.038 682.324156)">10</text>
     </g>
    </g>
    <g id="text_7">
     <text style="font-size: 12px; font-family: 'Times New Roman', 'DejaVu Serif', serif; text-anchor: middle; fill: #2e3440" x="352.772125" y="697.314" transform="rotate(-0 352.772125 697.314)">X (μm)</text>
    </g>
   </g>
   <g id="matplotlib.axis_2">
    <g id="ytick_1">
     <g id="line2d_13">
      <path d="M 35.50625 668.485562
L 670.038 668.485562
" clip-path="url(#pabb7e51a36)" style="fill: none; stroke: #b0b0b0; stroke-opacity: 0.3; stroke-width: 0.8; stroke-linecap: square"/>
     </g>
     <g id="line2d_14">
      <defs>
       <path id="m16f9921b2a" d="M 0 0
L -3.5 0
" style="stroke: #6c7a8d; stroke-width: 0.8"/>
      </defs>
      <g>
       <use xlink:href="#m16f9921b2a" x="35.50625" y="668.485562" style="fill: #6c7a8d; stroke: #6c7a8d; stroke-width: 0.8"/>
      </g>
     </g>
     <g id="text_8">
      <text style="font-size: 9px; font-family: 'Times New Roman', 'DejaVu Serif', serif; text-anchor: end; fill: #6c7a8d" x="28.50625" y="671.904859" transform="rotate(-0 28.50625 671.904859)">0</text>
     </g>
    </g>
    <g id="ytick_2">
     <g id="line2d_15">
      <path d="M 35.50625 541.579212
L 670.038 541.579212
" clip-path="url(#pabb7e51a36)" style="fill: none; stroke: #b0b0b0; stroke-opacity: 0.3; stroke-width: 0.8; stroke-linecap: square"/>
     </g>
     <g id="line2d_16">
      <g>
       <use xlink:href="#m16f9921b2a" x="35.50625" y="541.579212" style="fill: #6c7a8d; stroke: #6c7a8d; stroke-width: 0.8"/>
      </g>
     </g>
     <g id="text_9">
      <text style="font-size: 9px; font-family: 'Times New Roman', 'DejaVu Serif', serif; text-anchor: end; fill: #6c7a8d" x="28.50625" y="544.998509" transform="rotate(-0 28.50625 544.998509)">2</text>
     </g>
    </g>
    <g id="ytick_3">
     <g id="line2d_17">
      <path d="M 35.50625 414.672862
L 670.038 414.672862
" clip-path="url(#pabb7e51a36)" style="fill: none; stroke: #b0b0b0; stroke-opacity: 0.3; stroke-width: 0.8; stroke-linecap: square"/>
     </g>
     <g id="line2d_18">
      <g>
       <use xlink:href="#m16f9921b2a" x="35.50625" y="414.672862" style="fill: #6c7a8d; stroke: #6c7a8d; stroke-width: 0.8"/>
      </g>
     </g>
     <g id="text_10">
      <text style="font-size: 9px; font-family: 'Times New Roman', 'DejaVu Serif', serif; text-anchor: end; fill: #6c7a8d" x="28.50625" y="418.092159" transform="rotate(-0 28.50625 418.092159)">4</text>
     </g>
    </g>
    <g id="ytick_4">
     <g id="line2d_19">
      <path d="M 35.50625 287.766512
L 670.038 287.766512
" clip-path="url(#pabb7e51a36)" style="fill: none; stroke: #b0b0b0; stroke-opacity: 0.3; stroke-width: 0.8; stroke-linecap: square"/>
     </g>
     <g id="line2d_20">
      <g>
       <use xlink:href="#m16f9921b2a" x="35.50625" y="287.766512" style="fill: #6c7a8d; stroke: #6c7a8d; stroke-width: 0.8"/>
      </g>
     </g>
     <g id="text_11">
      <text style="font-size: 9px; font-family: 'Times New Roman', 'DejaVu Serif', serif; text-anchor: end; fill: #6c7a8d" x="28.50625" y="291.185809" transform="rotate(-0 28.50625 291.185809)">6</text>
     </g>
    </g>
    <g id="ytick_5">
     <g id="line2d_21">
      <path d="M 35.50625 160.860162
L 670.038 160.860162
" clip-path="url(#pabb7e51a36)" style="fill: none; stroke: #b0b0b0; stroke-opacity: 0.3; stroke-width: 0.8; stroke-linecap: square"/>
     </g>
     <g id="line2d_22">
      <g>
       <use xlink:href="#m16f9921b2a" x="35.50625" y="160.860162" style="fill: #6c7a8d; stroke: #6c7a8d; stroke-width: 0.8"/>
      </g>
     </g>
     <g id="text_12">
      <text style="font-size: 9px; font-family: 'Times New Roman', 'DejaVu Serif', serif; text-anchor: end; fill: #6c7a8d" x="28.50625" y="164.279459" transform="rotate(-0 28.50625 164.279459)">8</text>
     </g>
    </g>
    <g id="ytick_6">
     <g id="line2d_23">
      <path d="M 35.50625 33.953812
L 670.038 33.953812
" clip-path="url(#pabb7e51a36)" style="fill: none; stroke: #b0b0b0; stroke-opacity: 0.3; stroke-width: 0.8; stroke-linecap: square"/>
     </g>
     <g id="line2d_24">
      <g>
       <use xlink:href="#m16f9921b2a" x="35.50625" y="33.953812" style="fill: #6c7a8d; stroke: #6c7a8d; stroke-width: 0.8"/>
      </g>
     </g>
     <g id="text_13">
      <text style="font-size: 9px; font-family: 'Times New Roman', 'DejaVu Serif', serif; text-anchor: end; fill: #6c7a8d" x="28.50625" y="37.373109" transform="rotate(-0 28.50625 37.373109)">10</text>
     </g>
    </g>
    <g id="text_14">
     <text style="font-size: 12px; font-family: 'Times New Roman', 'DejaVu Serif', serif; text-anchor: middle; fill: #2e3440" x="10.558125" y="351.219687" transform="rotate(-90 10.558125 351.219687)">Y (μm)</text>
    </g>
   </g>
   <g id="patch_63">
    <path d="M 35.50625 668.485562
L 35.50625 33.953812
" style="fill: none; stroke: #6c7a8d; stroke-width: 0.8; stroke-linejoin: miter; stroke-linecap: square"/>
   </g>
   <g id="patch_64">
    <path d="M 670.038 668.485562
L 670.038 33.953812
" style="fill: none; stroke: #6c7a8d; stroke-width: 0.8; stroke-linejoin: miter; stroke-linecap: square"/>
   </g>
   <g id="patch_65">
    <path d="M 35.50625 668.485562
L 670.038 668.485562
" style="fill: none; stroke: #6c7a8d; stroke-width: 0.8; stroke-linejoin: miter; stroke-linecap: square"/>
   </g>
   <g id="patch_66">
    <path d="M 35.50625 33.953812
L 670.038 33.953812
" style="fill: none; stroke: #6c7a8d; stroke-width: 0.8; stroke-linejoin: miter; stroke-linecap: square"/>
   </g>
   <g id="text_15">
    <text style="font-weight: 700; font-size: 14px; font-family: 'Times New Roman', 'DejaVu Serif', serif; fill: #2e3440" transform="translate(10.510406 12.077812)">Hybrid Composite: Carbon Fiber+Graphene Nanoplatelets+Carbon Nanotubes in PEEK</text>
    <text style="font-weight: 700; font-size: 14px; font-family: 'Times New Roman', 'DejaVu Serif', serif; fill: #2e3440" transform="translate(293.67025 27.953812)">Total Vf: 15.0%</text>
   </g>
   <g id="legend_1">
    <g id="patch_67">
     <path d="M 523.364719 80.78475
L 663.738 80.78475
Q 665.538 80.78475 665.538 78.98475
L 665.538 40.253812
Q 665.538 38.453812 663.738 38.453812
L 523.364719 38.453812
Q 521.564719 38.453812 521.564719 40.253812
L 521.564719 78.98475
Q 521.564719 80.78475 523.364719 80.78475
z
" style="fill: #ffffff; opacity: 0.9; stroke: #6c7a8d; stroke-linejoin: miter"/>
    </g>
    <g id="line2d_25">
     <path d="M 525.164719 45.742406
L 534.164719 45.742406
L 543.164719 45.742406
" style="fill: none; stroke: #ffffff; stroke-width: 1.5; stroke-linecap: square"/>
     <defs>
      <path id="mc0264d77ac" d="M 0 5
C 1.326016 5 2.597899 4.473168 3.535534 3.535534
C 4.473168 2.597899 5 1.326016 5 0
C 5 -1.326016 4.473168 -2.597899 3.535534 -3.535534
C 2.597899 -4.473168 1.326016 -5 0 -5
C -1.326016 -5 -2.597899 -4.473168 -3.535534 -3.535534
C -4.473168 -2.597899 -5 -1.326016 -5 0
C -5 1.326016 -4.473168 2.597899 -3.535534 3.535534
C -2.597899 4.473168 -1.326016 5 0 5
z
" style="stroke: #ffffff"/>
     </defs>
     <g>
      <use xlink:href="#mc0264d77ac" x="534.164719" y="45.742406" style="fill: #808080; stroke: #ffffff"/>
     </g>
    </g>
    <g id="text_16">
     <text style="font-size: 9px; font-family: 'Times New Roman', 'DejaVu Serif', serif; text-anchor: start; fill: #2e3440" x="550.364719" y="48.892406" transform="rotate(-0 550.364719 48.892406)">Carbon Fiber</text>
    </g>
    <g id="line2d_26">
     <path d="M 525.164719 58.952719
L 534.164719 58.952719
L 543.164719 58.952719
" style="fill: none; stroke: #ffffff; stroke-width: 1.5; stroke-linecap: square"/>
     <defs>
      <path id="macadb97f0c" d="M 0 5
C 1.326016 5 2.597899 4.473168 3.535534 3.535534
C 4.473168 2.597899 5 1.326016 5 0
C 5 -1.326016 4.473168 -2.597899 3.535534 -3.535534
C 2.597899 -4.473168 1.326016 -5 0 -5
C -1.326016 -5 -2.597899 -4.473168 -3.535534 -3.535534
C -4.473168 -2.597899 -5 -1.326016 -5 0
C -5 1.326016 -4.473168 2.597899 -3.535534 3.535534
C -2.597899 4.473168 -1.326016 5 0 5
z
" style="stroke: #ffffff"/>
     </defs>
     <g>
      <use xlink:href="#macadb97f0c" x="534.164719" y="58.952719" style="stroke: #ffffff"/>
     </g>
    </g>
    <g id="text_17">
     <text style="font-size: 9px; font-family: 'Times New Roman', 'DejaVu Serif', serif; text-anchor: start; fill: #2e3440" x="550.364719" y="62.102719" transform="rotate(-0 550.364719 62.102719)">Graphene Nanoplatelets</text>
    </g>
    <g id="line2d_27">
     <path d="M 525.164719 72.163031
L 534.164719 72.163031
L 543.164719 72.163031
" style="fill: none; stroke: #ffffff; stroke-width: 1.5; stroke-linecap: square"/>
     <defs>
      <path id="m45ddcec850" d="M 0 5
C 1.326016 5 2.597899 4.473168 3.535534 3.535534
C 4.473168 2.597899 5 1.326016 5 0
C 5 -1.326016 4.473168 -2.597899 3.535534 -3.535534
C 2.597899 -4.473168 1.326016 -5 0 -5
C -1.326016 -5 -2.597899 -4.473168 -3.535534 -3.535534
C -4.473168 -2.597899 -5 -1.326016 -5 0
C -5 1.326016 -4.473168 2.597899 -3.535534 3.535534
C -2.597899 4.473168 -1.326016 5 0 5
z
" style="stroke: #ffffff"/>
     </defs>
     <g>
      <use xlink:href="#m45ddcec850" x="534.164719" y="72.163031" style="fill: #ff0000; stroke: #ffffff"/>
     </g>
    </g>
    <g id="text_18">
     <text style="font-size: 9px; font-family: 'Times New Roman', 'DejaVu Serif', serif; text-anchor: start; fill: #2e3440" x="550.364719" y="75.313031" transform="rotate(-0 550.364719 75.313031)">Carbon Nanotubes</text>
    </g>
   </g>
  </g>
 </g>
 <defs>
  <clipPath id="pabb7e51a36">
   <rect x="35.50625" y="33.953812" width="634.53175" height="634.53175"/>
  </clipPath>
 </defs>
</svg>
