<?xml version="1.0" encoding="utf-8" standalone="no"?>
<!DOCTYPE svg PUBLIC "-//W3C//DTD SVG 1.1//EN"
  "http://www.w3.org/Graphics/SVG/1.1/DTD/svg11.dtd">
<svg xmlns:xlink="http://www.w3.org/1999/xlink" width="820.613778pt" height="826.034062pt" viewBox="0 0 820.613778 826.034062" xmlns="http://www.w3.org/2000/svg" version="1.1">
 <metadata>
  <rdf:RDF xmlns:dc="http://purl.org/dc/elements/1.1/" xmlns:cc="http://creativecommons.org/ns#" xmlns:rdf="http://www.w3.org/1999/02/22-rdf-syntax-ns#">
   <cc:Work>
    <dc:type rdf:resource="http://purl.org/dc/dcmitype/StillImage"/>
    <dc:date>2026-04-11T13:11:10.917599</dc:date>
    <dc:format>image/svg+xml</dc:format>
    <dc:creator>
     <cc:Agent>
      <dc:title>Matplotlib v3.10.8, https://matplotlib.org/</dc:title>
     </cc:Agent>
    </dc:creator>
   </cc:Work>
  </rdf:RDF>
 </metadata>
 <defs>
  <style type="text/css">*{stroke-linejoin: round; stroke-linecap: butt}</style>
 </defs>
 <g id="figure_1">
  <g id="patch_1">
   <path d="M 0 826.034062
L 820.613778 826.034062
L 820.613778 0
L 0 0
z
" style="fill: #ffffff"/>
  </g>
  <g id="axes_1">
   <g id="patch_2">
    <path d="M 34.538438 370.877812
L 387.338437 370.877812
L 387.338437 18.077812
L 34.538438 18.077812
z
" style="fill: #ffffff"/>
   </g>
   <g id="patch_3">
    <path d="M 34.538438 370.877812
L 387.338437 370.877812
L 387.338437 18.077812
L 34.538438 18.077812
z
" clip-path="url(#p32c07321f8)" style="fill: #d3d3d3; opacity: 0.3; stroke: #000000; stroke-width: 2; stroke-linejoin: miter"/>
   </g>
   <g id="patch_4">
    <path d="M 177.275121 61.738327
C 174.159462 58.248618 170.893698 55.148943 168.197075 53.121967
C 165.500453 51.094991 163.593138 50.306209 162.895197 50.929341
C 162.197255 51.552473 162.76567 53.536642 164.475254 56.444859
C 166.184838 59.353077 168.896012 62.947898 172.011671 66.437606
C 175.127329 69.927315 178.393093 73.02699 181.089716 75.053966
C 183.786339 77.080942 185.693653 77.869724 186.391595 77.246592
C 187.089536 76.62346 186.521122 74.639291 184.811537 71.731074
C 183.101953 68.822856 180.39078 65.228035 177.275121 61.738327
z
" clip-path="url(#p32c07321f8)" style="fill: #808080; opacity: 0.7; stroke: #000000; stroke-linejoin: miter"/>
   </g>
   <g id="patch_5">
    <path d="M 241.140532 297.102996
C 245.26809 294.901028 249.052179 292.460971 251.659397 290.32022
C 254.266616 288.179469 255.484096 286.512806 255.043703 285.687294
C 254.603309 284.861783 252.540997 284.944822 249.310968 285.918124
C 246.080939 286.891426 241.94691 288.675524 237.819352 290.877492
C 233.691795 293.07946 229.907706 295.519516 227.300488 297.660268
C 224.693269 299.801019 223.475789 301.467682 223.916182 302.293193
C 224.356576 303.118705 226.418887 303.035665 229.648916 302.062364
C 232.878946 301.089062 237.012975 299.304964 241.140532 297.102996
z
" clip-path="url(#p32c07321f8)" style="fill: #808080; opacity: 0.7; stroke: #000000; stroke-linejoin: miter"/>
   </g>
   <g id="patch_6">
    <path d="M 86.445282 87.44256
C 84.984068 82.998435 83.22937 78.851841 81.567642 75.916017
C 79.905913 72.980193 78.472826 71.494836 77.584001 71.787079
C 76.695176 72.079322 76.423182 74.125304 76.827922 77.474422
C 77.232662 80.823539 78.281092 85.202352 79.742306 89.646477
C 81.203521 94.090602 82.958218 98.237196 84.619947 101.17302
C 86.281675 104.108844 87.714762 105.594201 88.603587 105.301958
C 89.492412 105.009715 89.764407 102.963733 89.359666 99.614615
C 88.954926 96.265497 87.906496 91.886684 86.445282 87.44256
z
" clip-path="url(#p32c07321f8)" style="fill: #808080; opacity: 0.7; stroke: #000000; stroke-linejoin: miter"/>
   </g>
   <g id="patch_7">
    <path d="M 271.466011 329.658552
C 266.808715 329.216977 262.306455 329.163501 258.950801 329.509902
C 255.595148 329.856302 253.660075 330.574297 253.57176 331.505756
C 253.483445 332.437216 255.249098 333.50609 258.479856 334.476971
C 261.710613 335.447853 266.142697 336.241474 270.799993 336.683049
C 275.457289 337.124624 279.959549 337.1781 283.315203 336.831699
C 286.670856 336.485299 288.605929 335.767304 288.694244 334.835845
C 288.782559 333.904386 287.016906 332.835512 283.786148 331.86463
C 280.555391 330.893748 276.123307 330.100127 271.466011 329.658552
z
" clip-path="url(#p32c07321f8)" style="fill: #808080; opacity: 0.7; stroke: #000000; stroke-linejoin: miter"/>
   </g>
   <g id="patch_8">
    <path d="M 309.020208 280.664859
C 312.955692 278.135559 316.529538 275.396794 318.954648 273.051747
C 321.379758 270.706701 322.458133 268.946834 321.952273 268.159737
C 321.446413 267.37264 319.397619 267.622576 316.257115 268.8545
C 313.11661 270.086424 309.140803 272.199755 305.20532 274.729055
C 301.269836 277.258356 297.69599 279.99712 295.27088 282.342167
C 292.845769 284.687214 291.767395 286.447081 292.273255 287.234177
C 292.779115 288.021274 294.827909 287.771338 297.968413 286.539414
C 301.108917 285.30749 305.084724 283.194159 309.020208 280.664859
z
" clip-path="url(#p32c07321f8)" style="fill: #808080; opacity: 0.7; stroke: #000000; stroke-linejoin: miter"/>
   </g>
   <g id="patch_9">
    <path d="M 122.865964 250.835636
C 122.502487 246.171595 121.783239 241.726836 120.866627 238.480264
C 119.950014 235.233693 118.910875 233.450377 117.978067 233.523073
C 117.045259 233.595768 116.294941 235.518539 115.892364 238.867918
C 115.489786 242.217296 115.467816 246.71982 115.831293 251.383861
C 116.194771 256.047902 116.914018 260.492661 117.830631 263.739233
C 118.747243 266.985804 119.786382 268.76912 120.71919 268.696424
C 121.651998 268.623729 122.402316 266.700958 122.804894 263.35158
C 123.207471 260.002201 123.229441 255.499677 122.865964 250.835636
z
" clip-path="url(#p32c07321f8)" style="fill: #808080; opacity: 0.7; stroke: #000000; stroke-linejoin: miter"/>
   </g>
   <g id="patch_10">
    <path d="M 194.562818 253.660018
C 192.952545 249.267704 191.058991 245.182651 189.29919 242.304544
C 187.539388 239.426437 186.057019 237.990259 185.178556 238.312314
C 184.300093 238.634369 184.09726 240.688361 184.614728 244.021922
C 185.132196 247.355483 186.327716 251.696444 187.937989 256.088757
C 189.548262 260.48107 191.441816 264.566123 193.201617 267.44423
C 194.961419 270.322338 196.443789 271.758515 197.322251 271.43646
C 198.200714 271.114406 198.403547 269.060414 197.886079 265.726852
C 197.368611 262.393291 196.173091 258.052331 194.562818 253.660018
z
" clip-path="url(#p32c07321f8)" style="fill: #808080; opacity: 0.7; stroke: #000000; stroke-linejoin: miter"/>
   </g>
   <g id="patch_11">
    <path d="M 174.481787 204.432013
C 170.829175 201.509032 167.09341 198.995615 164.097251 197.445313
C 161.101092 195.895011 159.089162 195.434399 158.504566 196.164922
C 157.91997 196.895444 158.810437 198.757457 160.979852 201.340874
C 163.149267 203.924291 166.420507 207.018187 170.07312 209.941168
C 173.725732 212.864148 177.461497 215.377565 180.457656 216.927867
C 183.453815 218.478169 185.465744 218.938781 186.050341 218.208259
C 186.634937 217.477736 185.74447 215.615723 183.575055 213.032306
C 181.405639 210.44889 178.134399 207.354994 174.481787 204.432013
z
" clip-path="url(#p32c07321f8)" style="fill: #808080; opacity: 0.7; stroke: #000000; stroke-linejoin: miter"/>
   </g>
   <g id="patch_12">
    <path d="M 127.435616 189.349895
C 126.096405 184.867495 124.455689 180.674495 122.874817 177.694352
C 121.293944 174.71421 119.901987 173.190242 119.005507 173.458085
C 118.109027 173.725927 117.781218 175.763711 118.094276 179.122639
C 118.407335 182.481568 119.3357 186.887398 120.674912 191.369798
C 122.014123 195.852197 123.654839 200.045198 125.235711 203.02534
C 126.816584 206.005482 128.208541 207.529451 129.105021 207.261608
C 130.001501 206.993766 130.32931 204.955982 130.016252 201.597053
C 129.703193 198.238125 128.774828 193.832295 127.435616 189.349895
z
" clip-path="url(#p32c07321f8)" style="fill: #808080; opacity: 0.7; stroke: #000000; stroke-linejoin: miter"/>
   </g>
   <g id="patch_13">
    <path d="M 81.529252 166.399254
C 85.552034 164.011238 89.220841 161.401054 91.727661 159.143564
C 94.23448 156.886075 95.374643 155.165594 94.897039 154.361038
C 94.419436 153.556481 92.363062 153.733538 89.180809 154.853213
C 85.998557 155.972888 81.950242 157.943765 77.92746 160.33178
C 73.904678 162.719796 70.235871 165.32998 67.729052 167.58747
C 65.222232 169.844959 64.08207 171.56544 64.559673 172.369996
C 65.037276 173.174553 67.09365 172.997496 70.275903 171.877821
C 73.458156 170.758146 77.50647 168.78727 81.529252 166.399254
z
" clip-path="url(#p32c07321f8)" style="fill: #808080; opacity: 0.7; stroke: #000000; stroke-linejoin: miter"/>
   </g>
   <g id="patch_14">
    <path d="M 348.527891 107.291813
C 351.222513 103.467626 353.503259 99.585436 354.867823 96.50025
C 356.232386 93.415064 356.569356 91.378775 355.804519 90.83985
C 355.039682 90.300926 353.235482 91.303368 350.789275 93.626399
C 348.343068 95.949431 345.454575 99.403387 342.759954 103.227574
C 340.065332 107.051761 337.784585 110.933951 336.420021 114.019137
C 335.055458 117.104322 334.718488 119.140612 335.483325 119.679536
C 336.248163 120.218461 338.052362 119.216019 340.498569 116.892987
C 342.944776 114.569956 345.833269 111.116 348.527891 107.291813
z
" clip-path="url(#p32c07321f8)" style="fill: #808080; opacity: 0.7; stroke: #000000; stroke-linejoin: miter"/>
   </g>
   <g id="patch_15">
    <path d="M 197.152388 303.874094
C 197.22327 299.196449 196.919569 294.704125 196.308171 291.386506
C 195.696773 288.068887 194.827597 286.196841 193.892068 286.182664
C 192.956538 286.168488 192.031039 288.013338 191.319398 291.310909
C 190.607758 294.60848 190.16808 299.089539 190.097198 303.767184
C 190.026316 308.44483 190.330018 312.937154 190.941416 316.254773
C 191.552813 319.572392 192.42199 321.444438 193.357519 321.458614
C 194.293048 321.472791 195.218548 319.62794 195.930188 316.330369
C 196.641828 313.032799 197.081506 308.55174 197.152388 303.874094
z
" clip-path="url(#p32c07321f8)" style="fill: #808080; opacity: 0.7; stroke: #000000; stroke-linejoin: miter"/>
   </g>
   <g id="patch_16">
    <path d="M 144.083009 149.428082
C 146.691701 145.544769 148.885327 141.612695 150.180767 138.497853
C 151.476207 135.383011 151.767695 133.339715 150.991032 132.817977
C 150.214369 132.296238 148.432968 133.338655 146.039161 135.715648
C 143.645354 138.09264 140.834585 141.610136 138.225893 145.49345
C 135.617201 149.376763 133.423575 153.308837 132.128135 156.423679
C 130.832695 159.53852 130.541208 161.581817 131.31787 162.103555
C 132.094533 162.625293 133.875934 161.582876 136.269741 159.205884
C 138.663548 156.828892 141.474317 153.311395 144.083009 149.428082
z
" clip-path="url(#p32c07321f8)" style="fill: #808080; opacity: 0.7; stroke: #000000; stroke-linejoin: miter"/>
   </g>
   <g id="patch_17">
    <path d="M 218.67964 183.914329
C 222.590873 181.347688 226.138492 178.575035 228.541174 176.207014
C 230.943856 173.838993 232.005433 172.068942 231.492104 171.286695
C 230.978776 170.504449 228.932454 170.773873 225.803816 172.03563
C 222.675179 173.297387 218.719665 175.448461 214.808432 178.015102
C 210.897198 180.581743 207.34958 183.354396 204.946898 185.722417
C 202.544216 188.090438 201.482639 189.860489 201.995967 190.642736
C 202.509295 191.424982 204.555618 191.155558 207.684255 189.893801
C 210.812893 188.632044 214.768406 186.48097 218.67964 183.914329
z
" clip-path="url(#p32c07321f8)" style="fill: #808080; opacity: 0.7; stroke: #000000; stroke-linejoin: miter"/>
   </g>
   <g id="patch_18">
    <path d="M 240.228734 75.823823
C 244.727295 74.539943 248.940193 72.951014 251.939587 71.40698
C 254.938981 69.862947 256.479984 68.489873 256.223208 67.59016
C 255.966432 66.690448 253.932841 66.337556 250.57031 66.609205
C 247.20778 66.880853 242.790845 67.754863 238.292285 69.038744
C 233.793725 70.322625 229.580827 71.911554 226.581433 73.455587
C 223.582039 74.999621 222.041036 76.372695 222.297812 77.272407
C 222.554588 78.172119 224.588179 78.525011 227.950709 78.253363
C 231.31324 77.981714 235.730174 77.107704 240.228734 75.823823
z
" clip-path="url(#p32c07321f8)" style="fill: #808080; opacity: 0.7; stroke: #000000; stroke-linejoin: miter"/>
   </g>
   <g id="patch_19">
    <path d="M 125.997522 327.881991
C 128.437725 323.89065 130.461156 319.868346 131.62218 316.700945
C 132.783203 313.533544 132.987025 311.47965 132.188757 310.991609
C 131.390489 310.503569 129.655305 311.621228 127.36536 314.098435
C 125.075415 316.575643 122.417673 320.210146 119.97747 324.201486
C 117.537267 328.192827 115.513835 332.215131 114.352812 335.382532
C 113.191789 338.549933 112.987966 340.603827 113.786235 341.091868
C 114.584503 341.579909 116.319686 340.46225 118.609631 337.985042
C 120.899576 335.507835 123.557319 331.873332 125.997522 327.881991
z
" clip-path="url(#p32c07321f8)" style="fill: #808080; opacity: 0.7; stroke: #000000; stroke-linejoin: miter"/>
   </g>
   <g id="patch_20">
    <path d="M 273.103968 125.571273
C 269.582492 122.491564 265.960057 119.817398 263.034461 118.137727
C 260.108866 116.458056 258.118971 115.910019 257.50303 116.614314
C 256.887088 117.318609 257.695388 119.217734 259.749911 121.893428
C 261.804433 124.569123 264.937436 127.802928 268.458911 130.882637
C 271.980387 133.962345 275.602822 136.636512 278.528418 138.316183
C 281.454014 139.995854 283.443908 140.543891 284.05985 139.839596
C 284.675791 139.135301 283.867491 137.236176 281.812969 134.560481
C 279.758446 131.884787 276.625443 128.650981 273.103968 125.571273
z
" clip-path="url(#p32c07321f8)" style="fill: #808080; opacity: 0.7; stroke: #000000; stroke-linejoin: miter"/>
   </g>
   <g id="patch_21">
    <path d="M 247.307872 246.85624
C 251.893105 245.928322 256.217423 244.673937 259.328444 243.369349
C 262.439466 242.064762 264.083191 240.816486 263.897607 239.899439
C 263.712023 238.982392 261.712283 238.471448 258.338806 238.479136
C 254.96533 238.486824 250.493546 239.012516 245.908313 239.940435
C 241.32308 240.868353 236.998762 242.122738 233.887741 243.427326
C 230.776719 244.731913 229.132994 245.980189 229.318578 246.897236
C 229.504162 247.814283 231.503902 248.325227 234.877378 248.317539
C 238.250855 248.309851 242.722639 247.784159 247.307872 246.85624
z
" clip-path="url(#p32c07321f8)" style="fill: #808080; opacity: 0.7; stroke: #000000; stroke-linejoin: miter"/>
   </g>
   <g id="patch_22">
    <path d="M 324.252096 205.797828
C 328.603952 204.08122 332.64175 202.088887 335.476212 200.259616
C 338.310674 198.430346 339.710378 196.91349 339.367057 196.043119
C 339.023735 195.172747 336.965418 195.019923 333.645426 195.618302
C 330.325434 196.216682 326.01483 197.517411 321.662974 199.234019
C 317.311118 200.950627 313.27332 202.94296 310.438858 204.772231
C 307.604396 206.601501 306.204692 208.118357 306.548014 208.988728
C 306.891335 209.8591 308.949652 210.011924 312.269644 209.413545
C 315.589636 208.815165 319.90024 207.514436 324.252096 205.797828
z
" clip-path="url(#p32c07321f8)" style="fill: #808080; opacity: 0.7; stroke: #000000; stroke-linejoin: miter"/>
   </g>
   <g id="patch_23">
    <path d="M 232.193015 116.156854
C 232.284195 111.47956 231.999992 106.98596 231.402996 103.665719
C 230.806001 100.345478 229.944956 98.469678 229.009498 98.451442
C 228.074039 98.433206 227.140542 100.274023 226.414599 103.568475
C 225.688655 106.862926 225.229536 111.342035 225.138356 116.019329
C 225.047176 120.696623 225.33138 125.190222 225.928375 128.510463
C 226.52537 131.830704 227.386415 133.706504 228.321874 133.72474
C 229.257332 133.742976 230.190829 131.902159 230.916773 128.607708
C 231.642716 125.313256 232.101835 120.834148 232.193015 116.156854
z
" clip-path="url(#p32c07321f8)" style="fill: #808080; opacity: 0.7; stroke: #000000; stroke-linejoin: miter"/>
   </g>
   <g id="patch_24">
    <path d="M 73.99187 311.424071
C 78.647267 310.962908 83.075974 310.150649 86.302618 309.166185
C 89.529263 308.181721 91.290404 307.105429 91.198172 306.17435
C 91.105939 305.24327 89.167863 304.533422 85.810782 304.201141
C 82.453701 303.86886 77.951705 303.941275 73.296308 304.402438
C 68.640911 304.863601 64.212205 305.675859 60.98556 306.660323
C 57.758916 307.644787 55.997774 308.721079 56.090007 309.652159
C 56.182239 310.583238 58.120316 311.293086 61.477397 311.625367
C 64.834478 311.957649 69.336473 311.885234 73.99187 311.424071
z
" clip-path="url(#p32c07321f8)" style="fill: #808080; opacity: 0.7; stroke: #000000; stroke-linejoin: miter"/>
   </g>
   <g id="patch_25">
    <path d="M 318.822342 336.995493
C 318.664419 332.319977 318.141423 327.847877 317.368537 324.564121
C 316.595651 321.280365 315.635978 319.453058 314.700875 319.484643
C 313.765771 319.516227 312.931585 321.404125 312.382035 324.732548
C 311.832485 328.060971 311.612441 332.558168 311.770363 337.233684
C 311.928286 341.909201 312.451282 346.381301 313.224168 349.665057
C 313.997054 352.948813 314.956727 354.77612 315.89183 354.744535
C 316.826933 354.712951 317.66112 352.825053 318.210669 349.49663
C 318.760219 346.168207 318.980264 341.67101 318.822342 336.995493
z
" clip-path="url(#p32c07321f8)" style="fill: #808080; opacity: 0.7; stroke: #000000; stroke-linejoin: miter"/>
   </g>
   <g id="patch_26">
    <path d="M 342.592298 245.416351
C 342.316293 240.746318 341.680471 236.288859 340.824864 233.02568
C 339.969257 229.7625 338.963722 227.960024 338.029715 228.015224
C 337.095708 228.070425 336.309488 229.978797 335.84421 233.320042
C 335.378932 236.661288 335.272584 241.162609 335.548589 245.832643
C 335.824593 250.502676 336.460415 254.960135 337.316022 258.223314
C 338.171629 261.486494 339.177165 263.288971 340.111171 263.23377
C 341.045178 263.178569 341.831398 261.270197 342.296676 257.928952
C 342.761954 254.587707 342.868302 250.086385 342.592298 245.416351
z
" clip-path="url(#p32c07321f8)" style="fill: #808080; opacity: 0.7; stroke: #000000; stroke-linejoin: miter"/>
   </g>
   <g id="matplotlib.axis_1">
    <g id="xtick_1">
     <g id="line2d_1">
      <path d="M 34.538438 370.877812
L 34.538438 18.077812
" clip-path="url(#p32c07321f8)" style="fill: none; stroke: #b0b0b0; stroke-opacity: 0.3; stroke-width: 0.8; stroke-linecap: square"/>
     </g>
     <g id="line2d_2">
      <defs>
       <path id="mdc13752f96" d="M 0 0
L 0 3.5
" style="stroke: #6c7a8d; stroke-width: 0.8"/>
      </defs>
      <g>
       <use xlink:href="#mdc13752f96" x="34.538438" y="370.877812" style="fill: #6c7a8d; stroke: #6c7a8d; stroke-width: 0.8"/>
      </g>
     </g>
     <g id="text_1">
      <text style="font-size: 9px; font-family: 'Times New Roman', 'DejaVu Serif', serif; text-anchor: middle; fill: #6c7a8d" x="34.538438" y="384.716406" transform="rotate(-0 34.538438 384.716406)">0</text>
     </g>
    </g>
    <g id="xtick_2">
     <g id="line2d_3">
      <path d="M 105.098438 370.877812
L 105.098438 18.077812
" clip-path="url(#p32c07321f8)" style="fill: none; stroke: #b0b0b0; stroke-opacity: 0.3; stroke-width: 0.8; stroke-linecap: square"/>
     </g>
     <g id="line2d_4">
      <g>
       <use xlink:href="#mdc13752f96" x="105.098438" y="370.877812" style="fill: #6c7a8d; stroke: #6c7a8d; stroke-width: 0.8"/>
      </g>
     </g>
     <g id="text_2">
      <text style="font-size: 9px; font-family: 'Times New Roman', 'DejaVu Serif', serif; text-anchor: middle; fill: #6c7a8d" x="105.098438" y="384.716406" transform="rotate(-0 105.098438 384.716406)">2</text>
     </g>
    </g>
    <g id="xtick_3">
     <g id="line2d_5">
      <path d="M 175.658437 370.877812
L 175.658437 18.077812
" clip-path="url(#p32c07321f8)" style="fill: none; stroke: #b0b0b0; stroke-opacity: 0.3; stroke-width: 0.8; stroke-linecap: square"/>
     </g>
     <g id="line2d_6">
      <g>
       <use xlink:href="#mdc13752f96" x="175.658437" y="370.877812" style="fill: #6c7a8d; stroke: #6c7a8d; stroke-width: 0.8"/>
      </g>
     </g>
     <g id="text_3">
      <text style="font-size: 9px; font-family: 'Times New Roman', 'DejaVu Serif', serif; text-anchor: middle; fill: #6c7a8d" x="175.658437" y="384.716406" transform="rotate(-0 175.658437 384.716406)">4</text>
     </g>
    </g>
    <g id="xtick_4">
     <g id="line2d_7">
      <path d="M 246.218437 370.877812
L 246.218437 18.077812
" clip-path="url(#p32c07321f8)" style="fill: none; stroke: #b0b0b0; stroke-opacity: 0.3; stroke-width: 0.8; stroke-linecap: square"/>
     </g>
     <g id="line2d_8">
      <g>
       <use xlink:href="#mdc13752f96" x="246.218437" y="370.877812" style="fill: #6c7a8d; stroke: #6c7a8d; stroke-width: 0.8"/>
      </g>
     </g>
     <g id="text_4">
      <text style="font-size: 9px; font-family: 'Times New Roman', 'DejaVu Serif', serif; text-anchor: middle; fill: #6c7a8d" x="246.218437" y="384.716406" transform="rotate(-0 246.218437 384.716406)">6</text>
     </g>
    </g>
    <g id="xtick_5">
     <g id="line2d_9">
      <path d="M 316.778437 370.877812
L 316.778437 18.077812
" clip-path="url(#p32c07321f8)" style="fill: none; stroke: #b0b0b0; stroke-opacity: 0.3; stroke-width: 0.8; stroke-linecap: square"/>
     </g>
     <g id="line2d_10">
      <g>
       <use xlink:href="#mdc13752f96" x="316.778437" y="370.877812" style="fill: #6c7a8d; stroke: #6c7a8d; stroke-width: 0.8"/>
      </g>
     </g>
     <g id="text_5">
      <text style="font-size: 9px; font-family: 'Times New Roman', 'DejaVu Serif', serif; text-anchor: middle; fill: #6c7a8d" x="316.778437" y="384.716406" transform="rotate(-0 316.778437 384.716406)">8</text>
     </g>
    </g>
    <g id="xtick_6">
     <g id="line2d_11">
      <path d="M 387.338437 370.877812
L 387.338437 18.077812
" clip-path="url(#p32c07321f8)" style="fill: none; stroke: #b0b0b0; stroke-opacity: 0.3; stroke-width: 0.8; stroke-linecap: square"/>
     </g>
     <g id="line2d_12">
      <g>
       <use xlink:href="#mdc13752f96" x="387.338437" y="370.877812" style="fill: #6c7a8d; stroke: #6c7a8d; stroke-width: 0.8"/>
      </g>
     </g>
     <g id="text_6">
      <text style="font-size: 9px; font-family: 'Times New Roman', 'DejaVu Serif', serif; text-anchor: middle; fill: #6c7a8d" x="387.338437" y="384.716406" transform="rotate(-0 387.338437 384.716406)">10</text>
     </g>
    </g>
    <g id="text_7">
     <text style="font-size: 11px; font-family: 'Times New Roman', 'DejaVu Serif', serif; text-anchor: middle; fill: #2e3440" x="210.938437" y="398.946406" transform="rotate(-0 210.938437 398.946406)">X (μm)</text>
    </g>
   </g>
   <g id="matplotlib.axis_2">
    <g id="ytick_1">
     <g id="line2d_13">
      <path d="M 34.538438 370.877812
L 387.338437 370.877812
" clip-path="url(#p32c07321f8)" style="fill: none; stroke: #b0b0b0; stroke-opacity: 0.3; stroke-width: 0.8; stroke-linecap: square"/>
     </g>
     <g id="line2d_14">
      <defs>
       <path id="mcb11e1a937" d="M 0 0
L -3.5 0
" style="stroke: #6c7a8d; stroke-width: 0.8"/>
      </defs>
      <g>
       <use xlink:href="#mcb11e1a937" x="34.538438" y="370.877812" style="fill: #6c7a8d; stroke: #6c7a8d; stroke-width: 0.8"/>
      </g>
     </g>
     <g id="text_8">
      <text style="font-size: 9px; font-family: 'Times New Roman', 'DejaVu Serif', serif; text-anchor: end; fill: #6c7a8d" x="27.538438" y="374.297109" transform="rotate(-0 27.538438 374.297109)">0</text>
     </g>
    </g>
    <g id="ytick_2">
     <g id="line2d_15">
      <path d="M 34.538438 300.317812
L 387.338437 300.317812
" clip-path="url(#p32c07321f8)" style="fill: none; stroke: #b0b0b0; stroke-opacity: 0.3; stroke-width: 0.8; stroke-linecap: square"/>
     </g>
     <g id="line2d_16">
      <g>
       <use xlink:href="#mcb11e1a937" x="34.538438" y="300.317812" style="fill: #6c7a8d; stroke: #6c7a8d; stroke-width: 0.8"/>
      </g>
     </g>
     <g id="text_9">
      <text style="font-size: 9px; font-family: 'Times New Roman', 'DejaVu Serif', serif; text-anchor: end; fill: #6c7a8d" x="27.538438" y="303.737109" transform="rotate(-0 27.538438 303.737109)">2</text>
     </g>
    </g>
    <g id="ytick_3">
     <g id="line2d_17">
      <path d="M 34.538438 229.757812
L 387.338437 229.757812
" clip-path="url(#p32c07321f8)" style="fill: none; stroke: #b0b0b0; stroke-opacity: 0.3; stroke-width: 0.8; stroke-linecap: square"/>
     </g>
     <g id="line2d_18">
      <g>
       <use xlink:href="#mcb11e1a937" x="34.538438" y="229.757812" style="fill: #6c7a8d; stroke: #6c7a8d; stroke-width: 0.8"/>
      </g>
     </g>
     <g id="text_10">
      <text style="font-size: 9px; font-family: 'Times New Roman', 'DejaVu Serif', serif; text-anchor: end; fill: #6c7a8d" x="27.538438" y="233.177109" transform="rotate(-0 27.538438 233.177109)">4</text>
     </g>
    </g>
    <g id="ytick_4">
     <g id="line2d_19">
      <path d="M 34.538438 159.197812
L 387.338437 159.197812
" clip-path="url(#p32c07321f8)" style="fill: none; stroke: #b0b0b0; stroke-opacity: 0.3; stroke-width: 0.8; stroke-linecap: square"/>
     </g>
     <g id="line2d_20">
      <g>
       <use xlink:href="#mcb11e1a937" x="34.538438" y="159.197812" style="fill: #6c7a8d; stroke: #6c7a8d; stroke-width: 0.8"/>
      </g>
     </g>
     <g id="text_11">
      <text style="font-size: 9px; font-family: 'Times New Roman', 'DejaVu Serif', serif; text-anchor: end; fill: #6c7a8d" x="27.538438" y="162.617109" transform="rotate(-0 27.538438 162.617109)">6</text>
     </g>
    </g>
    <g id="ytick_5">
     <g id="line2d_21">
      <path d="M 34.538438 88.637812
L 387.338437 88.637812
" clip-path="url(#p32c07321f8)" style="fill: none; stroke: #b0b0b0; stroke-opacity: 0.3; stroke-width: 0.8; stroke-linecap: square"/>
     </g>
     <g id="line2d_22">
      <g>
       <use xlink:href="#mcb11e1a937" x="34.538438" y="88.637812" style="fill: #6c7a8d; stroke: #6c7a8d; stroke-width: 0.8"/>
      </g>
     </g>
     <g id="text_12">
      <text style="font-size: 9px; font-family: 'Times New Roman', 'DejaVu Serif', serif; text-anchor: end; fill: #6c7a8d" x="27.538438" y="92.057109" transform="rotate(-0 27.538438 92.057109)">8</text>
     </g>
    </g>
    <g id="ytick_6">
     <g id="line2d_23">
      <path d="M 34.538438 18.077812
L 387.338437 18.077812
" clip-path="url(#p32c07321f8)" style="fill: none; stroke: #b0b0b0; stroke-opacity: 0.3; stroke-width: 0.8; stroke-linecap: square"/>
     </g>
     <g id="line2d_24">
      <g>
       <use xlink:href="#mcb11e1a937" x="34.538438" y="18.077812" style="fill: #6c7a8d; stroke: #6c7a8d; stroke-width: 0.8"/>
      </g>
     </g>
     <g id="text_13">
      <text style="font-size: 9px; font-family: 'Times New Roman', 'DejaVu Serif', serif; text-anchor: end; fill: #6c7a8d" x="27.538438" y="21.497109" transform="rotate(-0 27.538438 21.497109)">10</text>
     </g>
    </g>
    <g id="text_14">
     <text style="font-size: 11px; font-family: 'Times New Roman', 'DejaVu Serif', serif; text-anchor: middle; fill: #2e3440" x="9.798281" y="194.477812" transform="rotate(-90 9.798281 194.477812)">Y (μm)</text>
    </g>
   </g>
   <g id="patch_27">
    <path d="M 34.538438 370.877812
L 34.538438 18.077812
" style="fill: none; stroke: #6c7a8d; stroke-width: 0.8; stroke-linejoin: miter; stroke-linecap: square"/>
   </g>
   <g id="patch_28">
    <path d="M 387.338437 370.877812
L 387.338437 18.077812
" style="fill: none; stroke: #6c7a8d; stroke-width: 0.8; stroke-linejoin: miter; stroke-linecap: square"/>
   </g>
   <g id="patch_29">
    <path d="M 34.538438 370.877812
L 387.338437 370.877812
" style="fill: none; stroke: #6c7a8d; stroke-width: 0.8; stroke-linejoin: miter; stroke-linecap: square"/>
   </g>
   <g id="patch_30">
    <path d="M 34.538438 18.077812
L 387.338437 18.077812
" style="fill: none; stroke: #6c7a8d; stroke-width: 0.8; stroke-linejoin: miter; stroke-linecap: square"/>
   </g>
   <g id="text_15">
    <text style="font-weight: 700; font-size: 14px; font-family: 'Times New Roman', 'DejaVu Serif', serif; text-anchor: middle; fill: #2e3440" x="210.938437" y="12.077812" transform="rotate(-0 210.938437 12.077812)">Carbon Fiber</text>
   </g>
  </g>
  <g id="axes_2">
   <g id="patch_31">
    <path d="M 460.647528 370.877812
L 813.447528 370.877812
L 813.447528 18.077812
L 460.647528 18.077812
z
" style="fill: #ffffff"/>
   </g>
   <g id="patch_32">
    <path d="M 460.647528 370.877812
L 813.447528 370.877812
L 813.447528 18.077812
L 460.647528 18.077812
z
" clip-path="url(#p3096ecfd61)" style="fill: #d3d3d3; opacity: 0.3; stroke: #000000; stroke-width: 2; stroke-linejoin: miter"/>
   </g>
   <g id="patch_33">
    <path d="M 603.408221 82.448687
C 605.747313 82.448687 607.990916 81.519356 609.644903 79.865369
C 611.298891 78.211381 612.228221 75.967778 612.228221 73.628687
C 612.228221 71.289596 611.298891 69.045992 609.644903 67.392005
C 607.990916 65.738018 605.747313 64.808687 603.408221 64.808687
C 601.06913 64.808687 598.825527 65.738018 597.17154 67.392005
C 595.517552 69.045992 594.588221 71.289596 594.588221 73.628687
C 594.588221 75.967778 595.517552 78.211381 597.17154 79.865369
C 598.825527 81.519356 601.06913 82.448687 603.408221 82.448687
z
" clip-path="url(#p3096ecfd61)" style="opacity: 0.7; stroke: #000000; stroke-linejoin: miter"/>
   </g>
   <g id="patch_34">
    <path d="M 663.50063 295.528846
C 665.839722 295.528846 668.083325 294.599516 669.737312 292.945528
C 671.3913 291.291541 672.32063 289.047938 672.32063 286.708846
C 672.32063 284.369755 671.3913 282.126152 669.737312 280.472165
C 668.083325 278.818177 665.839722 277.888846 663.50063 277.888846
C 661.161539 277.888846 658.917936 278.818177 657.263949 280.472165
C 655.609961 282.126152 654.68063 284.369755 654.68063 286.708846
C 654.68063 289.047938 655.609961 291.291541 657.263949 292.945528
C 658.917936 294.599516 661.161539 295.528846 663.50063 295.528846
z
" clip-path="url(#p3096ecfd61)" style="opacity: 0.7; stroke: #000000; stroke-linejoin: miter"/>
   </g>
   <g id="patch_35">
    <path d="M 518.557371 105.115735
C 520.896463 105.115735 523.140066 104.186404 524.794053 102.532417
C 526.44804 100.878429 527.377371 98.634826 527.377371 96.295735
C 527.377371 93.956644 526.44804 91.71304 524.794053 90.059053
C 523.140066 88.405066 520.896463 87.475735 518.557371 87.475735
C 516.21828 87.475735 513.974677 88.405066 512.320689 90.059053
C 510.666702 91.71304 509.737371 93.956644 509.737371 96.295735
C 509.737371 98.634826 510.666702 100.878429 512.320689 102.532417
C 513.974677 104.186404 516.21828 105.115735 518.557371 105.115735
z
" clip-path="url(#p3096ecfd61)" style="opacity: 0.7; stroke: #000000; stroke-linejoin: miter"/>
   </g>
   <g id="patch_36">
    <path d="M 763.043517 114.160632
C 765.382609 114.160632 767.626212 113.231301 769.280199 111.577314
C 770.934186 109.923327 771.863517 107.679723 771.863517 105.340632
C 771.863517 103.001541 770.934186 100.757938 769.280199 99.10395
C 767.626212 97.449963 765.382609 96.520632 763.043517 96.520632
C 760.704426 96.520632 758.460823 97.449963 756.806835 99.10395
C 755.152848 100.757938 754.223517 103.001541 754.223517 105.340632
C 754.223517 107.679723 755.152848 109.923327 756.806835 111.577314
C 758.460823 113.231301 760.704426 114.160632 763.043517 114.160632
z
" clip-path="url(#p3096ecfd61)" style="opacity: 0.7; stroke: #000000; stroke-linejoin: miter"/>
   </g>
   <g id="patch_37">
    <path d="M 551.735893 288.185928
C 554.074985 288.185928 556.318588 287.256597 557.972575 285.60261
C 559.626562 283.948623 560.555893 281.705019 560.555893 279.365928
C 560.555893 277.026837 559.626562 274.783234 557.972575 273.129246
C 556.318588 271.475259 554.074985 270.545928 551.735893 270.545928
C 549.396802 270.545928 547.153199 271.475259 545.499211 273.129246
C 543.845224 274.783234 542.915893 277.026837 542.915893 279.365928
C 542.915893 281.705019 543.845224 283.948623 545.499211 285.60261
C 547.153199 287.256597 549.396802 288.185928 551.735893 288.185928
z
" clip-path="url(#p3096ecfd61)" style="opacity: 0.7; stroke: #000000; stroke-linejoin: miter"/>
   </g>
   <g id="patch_38">
    <path d="M 643.685421 221.545259
C 646.024512 221.545259 648.268115 220.615928 649.922103 218.96194
C 651.57609 217.307953 652.505421 215.06435 652.505421 212.725259
C 652.505421 210.386167 651.57609 208.142564 649.922103 206.488577
C 648.268115 204.834589 646.024512 203.905259 643.685421 203.905259
C 641.34633 203.905259 639.102726 204.834589 637.448739 206.488577
C 635.794752 208.142564 634.865421 210.386167 634.865421 212.725259
C 634.865421 215.06435 635.794752 217.307953 637.448739 218.96194
C 639.102726 220.615928 641.34633 221.545259 643.685421 221.545259
z
" clip-path="url(#p3096ecfd61)" style="opacity: 0.7; stroke: #000000; stroke-linejoin: miter"/>
   </g>
   <g id="patch_39">
    <path d="M 581.315689 239.129944
C 583.65478 239.129944 585.898383 238.200613 587.552371 236.546626
C 589.206358 234.892639 590.135689 232.649036 590.135689 230.309944
C 590.135689 227.970853 589.206358 225.72725 587.552371 224.073262
C 585.898383 222.419275 583.65478 221.489944 581.315689 221.489944
C 578.976597 221.489944 576.732994 222.419275 575.079007 224.073262
C 573.42502 225.72725 572.495689 227.970853 572.495689 230.309944
C 572.495689 232.649036 573.42502 234.892639 575.079007 236.546626
C 576.732994 238.200613 578.976597 239.129944 581.315689 239.129944
z
" clip-path="url(#p3096ecfd61)" style="opacity: 0.7; stroke: #000000; stroke-linejoin: miter"/>
   </g>
   <g id="matplotlib.axis_3">
    <g id="xtick_7">
     <g id="line2d_25">
      <path d="M 460.647528 370.877812
L 460.647528 18.077812
" clip-path="url(#p3096ecfd61)" style="fill: none; stroke: #b0b0b0; stroke-opacity: 0.3; stroke-width: 0.8; stroke-linecap: square"/>
     </g>
     <g id="line2d_26">
      <g>
       <use xlink:href="#mdc13752f96" x="460.647528" y="370.877812" style="fill: #6c7a8d; stroke: #6c7a8d; stroke-width: 0.8"/>
      </g>
     </g>
     <g id="text_16">
      <text style="font-size: 9px; font-family: 'Times New Roman', 'DejaVu Serif', serif; text-anchor: middle; fill: #6c7a8d" x="460.647528" y="384.716406" transform="rotate(-0 460.647528 384.716406)">0</text>
     </g>
    </g>
    <g id="xtick_8">
     <g id="line2d_27">
      <path d="M 531.207528 370.877812
L 531.207528 18.077812
" clip-path="url(#p3096ecfd61)" style="fill: none; stroke: #b0b0b0; stroke-opacity: 0.3; stroke-width: 0.8; stroke-linecap: square"/>
     </g>
     <g id="line2d_28">
      <g>
       <use xlink:href="#mdc13752f96" x="531.207528" y="370.877812" style="fill: #6c7a8d; stroke: #6c7a8d; stroke-width: 0.8"/>
      </g>
     </g>
     <g id="text_17">
      <text style="font-size: 9px; font-family: 'Times New Roman', 'DejaVu Serif', serif; text-anchor: middle; fill: #6c7a8d" x="531.207528" y="384.716406" transform="rotate(-0 531.207528 384.716406)">2</text>
     </g>
    </g>
    <g id="xtick_9">
     <g id="line2d_29">
      <path d="M 601.767528 370.877812
L 601.767528 18.077812
" clip-path="url(#p3096ecfd61)" style="fill: none; stroke: #b0b0b0; stroke-opacity: 0.3; stroke-width: 0.8; stroke-linecap: square"/>
     </g>
     <g id="line2d_30">
      <g>
       <use xlink:href="#mdc13752f96" x="601.767528" y="370.877812" style="fill: #6c7a8d; stroke: #6c7a8d; stroke-width: 0.8"/>
      </g>
     </g>
     <g id="text_18">
      <text style="font-size: 9px; font-family: 'Times New Roman', 'DejaVu Serif', serif; text-anchor: middle; fill: #6c7a8d" x="601.767528" y="384.716406" transform="rotate(-0 601.767528 384.716406)">4</text>
     </g>
    </g>
    <g id="xtick_10">
     <g id="line2d_31">
      <path d="M 672.327528 370.877812
L 672.327528 18.077812
" clip-path="url(#p3096ecfd61)" style="fill: none; stroke: #b0b0b0; stroke-opacity: 0.3; stroke-width: 0.8; stroke-linecap: square"/>
     </g>
     <g id="line2d_32">
      <g>
       <use xlink:href="#mdc13752f96" x="672.327528" y="370.877812" style="fill: #6c7a8d; stroke: #6c7a8d; stroke-width: 0.8"/>
      </g>
     </g>
     <g id="text_19">
      <text style="font-size: 9px; font-family: 'Times New Roman', 'DejaVu Serif', serif; text-anchor: middle; fill: #6c7a8d" x="672.327528" y="384.716406" transform="rotate(-0 672.327528 384.716406)">6</text>
     </g>
    </g>
    <g id="xtick_11">
     <g id="line2d_33">
      <path d="M 742.887528 370.877812
L 742.887528 18.077812
" clip-path="url(#p3096ecfd61)" style="fill: none; stroke: #b0b0b0; stroke-opacity: 0.3; stroke-width: 0.8; stroke-linecap: square"/>
     </g>
     <g id="line2d_34">
      <g>
       <use xlink:href="#mdc13752f96" x="742.887528" y="370.877812" style="fill: #6c7a8d; stroke: #6c7a8d; stroke-width: 0.8"/>
      </g>
     </g>
     <g id="text_20">
      <text style="font-size: 9px; font-family: 'Times New Roman', 'DejaVu Serif', serif; text-anchor: middle; fill: #6c7a8d" x="742.887528" y="384.716406" transform="rotate(-0 742.887528 384.716406)">8</text>
     </g>
    </g>
    <g id="xtick_12">
     <g id="line2d_35">
      <path d="M 813.447528 370.877812
L 813.447528 18.077812
" clip-path="url(#p3096ecfd61)" style="fill: none; stroke: #b0b0b0; stroke-opacity: 0.3; stroke-width: 0.8; stroke-linecap: square"/>
     </g>
     <g id="line2d_36">
      <g>
       <use xlink:href="#mdc13752f96" x="813.447528" y="370.877812" style="fill: #6c7a8d; stroke: #6c7a8d; stroke-width: 0.8"/>
      </g>
     </g>
     <g id="text_21">
      <text style="font-size: 9px; font-family: 'Times New Roman', 'DejaVu Serif', serif; text-anchor: middle; fill: #6c7a8d" x="813.447528" y="384.716406" transform="rotate(-0 813.447528 384.716406)">10</text>
     </g>
    </g>
    <g id="text_22">
     <text style="font-size: 11px; font-family: 'Times New Roman', 'DejaVu Serif', serif; text-anchor: middle; fill: #2e3440" x="637.047528" y="398.946406" transform="rotate(-0 637.047528 398.946406)">X (μm)</text>
    </g>
   </g>
   <g id="matplotlib.axis_4">
    <g id="ytick_7">
     <g id="line2d_37">
      <path d="M 460.647528 370.877812
L 813.447528 370.877812
" clip-path="url(#p3096ecfd61)" style="fill: none; stroke: #b0b0b0; stroke-opacity: 0.3; stroke-width: 0.8; stroke-linecap: square"/>
     </g>
     <g id="line2d_38">
      <g>
       <use xlink:href="#mcb11e1a937" x="460.647528" y="370.877812" style="fill: #6c7a8d; stroke: #6c7a8d; stroke-width: 0.8"/>
      </g>
     </g>
     <g id="text_23">
      <text style="font-size: 9px; font-family: 'Times New Roman', 'DejaVu Serif', serif; text-anchor: end; fill: #6c7a8d" x="453.647528" y="374.297109" transform="rotate(-0 453.647528 374.297109)">0</text>
     </g>
    </g>
    <g id="ytick_8">
     <g id="line2d_39">
      <path d="M 460.647528 300.317812
L 813.447528 300.317812
" clip-path="url(#p3096ecfd61)" style="fill: none; stroke: #b0b0b0; stroke-opacity: 0.3; stroke-width: 0.8; stroke-linecap: square"/>
     </g>
     <g id="line2d_40">
      <g>
       <use xlink:href="#mcb11e1a937" x="460.647528" y="300.317812" style="fill: #6c7a8d; stroke: #6c7a8d; stroke-width: 0.8"/>
      </g>
     </g>
     <g id="text_24">
      <text style="font-size: 9px; font-family: 'Times New Roman', 'DejaVu Serif', serif; text-anchor: end; fill: #6c7a8d" x="453.647528" y="303.737109" transform="rotate(-0 453.647528 303.737109)">2</text>
     </g>
    </g>
    <g id="ytick_9">
     <g id="line2d_41">
      <path d="M 460.647528 229.757812
L 813.447528 229.757812
" clip-path="url(#p3096ecfd61)" style="fill: none; stroke: #b0b0b0; stroke-opacity: 0.3; stroke-width: 0.8; stroke-linecap: square"/>
     </g>
     <g id="line2d_42">
      <g>
       <use xlink:href="#mcb11e1a937" x="460.647528" y="229.757812" style="fill: #6c7a8d; stroke: #6c7a8d; stroke-width: 0.8"/>
      </g>
     </g>
     <g id="text_25">
      <text style="font-size: 9px; font-family: 'Times New Roman', 'DejaVu Serif', serif; text-anchor: end; fill: #6c7a8d" x="453.647528" y="233.177109" transform="rotate(-0 453.647528 233.177109)">4</text>
     </g>
    </g>
    <g id="ytick_10">
     <g id="line2d_43">
      <path d="M 460.647528 159.197812
L 813.447528 159.197812
" clip-path="url(#p3096ecfd61)" style="fill: none; stroke: #b0b0b0; stroke-opacity: 0.3; stroke-width: 0.8; stroke-linecap: square"/>
     </g>
     <g id="line2d_44">
      <g>
       <use xlink:href="#mcb11e1a937" x="460.647528" y="159.197812" style="fill: #6c7a8d; stroke: #6c7a8d; stroke-width: 0.8"/>
      </g>
     </g>
     <g id="text_26">
      <text style="font-size: 9px; font-family: 'Times New Roman', 'DejaVu Serif', serif; text-anchor: end; fill: #6c7a8d" x="453.647528" y="162.617109" transform="rotate(-0 453.647528 162.617109)">6</text>
     </g>
    </g>
    <g id="ytick_11">
     <g id="line2d_45">
      <path d="M 460.647528 88.637812
L 813.447528 88.637812
" clip-path="url(#p3096ecfd61)" style="fill: none; stroke: #b0b0b0; stroke-opacity: 0.3; stroke-width: 0.8; stroke-linecap: square"/>
     </g>
     <g id="line2d_46">
      <g>
       <use xlink:href="#mcb11e1a937" x="460.647528" y="88.637812" style="fill: #6c7a8d; stroke: #6c7a8d; stroke-width: 0.8"/>
      </g>
     </g>
     <g id="text_27">
      <text style="font-size: 9px; font-family: 'Times New Roman', 'DejaVu Serif', serif; text-anchor: end; fill: #6c7a8d" x="453.647528" y="92.057109" transform="rotate(-0 453.647528 92.057109)">8</text>
     </g>
    </g>
    <g id="ytick_12">
     <g id="line2d_47">
      <path d="M 460.647528 18.077812
L 813.447528 18.077812
" clip-path="url(#p3096ecfd61)" style="fill: none; stroke: #b0b0b0; stroke-opacity: 0.3; stroke-width: 0.8; stroke-linecap: square"/>
     </g>
     <g id="line2d_48">
      <g>
       <use xlink:href="#mcb11e1a937" x="460.647528" y="18.077812" style="fill: #6c7a8d; stroke: #6c7a8d; stroke-width: 0.8"/>
      </g>
     </g>
     <g id="text_28">
      <text style="font-size: 9px; font-family: 'Times New Roman', 'DejaVu Serif', serif; text-anchor: end; fill: #6c7a8d" x="453.647528" y="21.497109" transform="rotate(-0 453.647528 21.497109)">10</text>
     </g>
    </g>
    <g id="text_29">
     <text style="font-size: 11px; font-family: 'Times New Roman', 'DejaVu Serif', serif; text-anchor: middle; fill: #2e3440" x="435.907372" y="194.477812" transform="rotate(-90 435.907372 194.477812)">Y (μm)</text>
    </g>
   </g>
   <g id="patch_40">
    <path d="M 460.647528 370.877812
L 460.647528 18.077812
" style="fill: none; stroke: #6c7a8d; stroke-width: 0.8; stroke-linejoin: miter; stroke-linecap: square"/>
   </g>
   <g id="patch_41">
    <path d="M 813.447528 370.877812
L 813.447528 18.077812
" style="fill: none; stroke: #6c7a8d; stroke-width: 0.8; stroke-linejoin: miter; stroke-linecap: square"/>
   </g>
   <g id="patch_42">
    <path d="M 460.647528 370.877812
L 813.447528 370.877812
" style="fill: none; stroke: #6c7a8d; stroke-width: 0.8; stroke-linejoin: miter; stroke-linecap: square"/>
   </g>
   <g id="patch_43">
    <path d="M 460.647528 18.077812
L 813.447528 18.077812
" style="fill: none; stroke: #6c7a8d; stroke-width: 0.8; stroke-linejoin: miter; stroke-linecap: square"/>
   </g>
   <g id="text_30">
    <text style="font-weight: 700; font-size: 14px; font-family: 'Times New Roman', 'DejaVu Serif', serif; text-anchor: middle; fill: #2e3440" x="637.047528" y="12.077812" transform="rotate(-0 637.047528 12.077812)">Graphene Nanoplatelets</text>
   </g>
  </g>
  <g id="axes_3">
   <g id="patch_44">
    <path d="M 34.538438 794.237812
L 387.338438 794.237812
L 387.338438 441.437812
L 34.538438 441.437812
z
" style="fill: #ffffff"/>
   </g>
   <g id="patch_45">
    <path d="M 34.538438 794.237812
L 387.338438 794.237812
L 387.338438 441.437812
L 34.538438 441.437812
z
" clip-path="url(#pb5e59cc171)" style="fill: #d3d3d3; opacity: 0.3; stroke: #000000; stroke-width: 2; stroke-linejoin: miter"/>
   </g>
   <g id="patch_46">
    <path d="M 178.265019 485.703507
C 175.14936 482.213799 171.814272 479.176016 168.99427 477.259196
C 166.174267 475.342375 164.099591 474.703016 163.227164 475.481931
C 162.354737 476.260846 162.755789 478.394439 164.341993 481.412811
C 165.928197 484.431183 168.570047 488.087898 171.685706 491.577606
C 174.801365 495.067315 178.136453 498.105097 180.956455 500.021918
C 183.776458 501.938738 185.851134 502.578097 186.723561 501.799182
C 187.595989 501.020267 187.194936 498.886674 185.608732 495.868302
C 184.022528 492.84993 181.380678 489.193215 178.265019 485.703507
z
" clip-path="url(#pb5e59cc171)" style="fill: #add8e6; opacity: 0.7; stroke: #000000; stroke-linejoin: miter"/>
   </g>
   <g id="patch_47">
    <path d="M 241.294629 720.331009
C 245.422187 718.129041 249.162533 715.60699 251.6919 713.320307
C 254.221268 711.033625 255.333144 709.169009 254.782652 708.13712
C 254.23216 707.10523 252.064245 706.990317 248.756364 707.817687
C 245.448484 708.645058 241.270712 710.347161 237.143155 712.549129
C 233.015597 714.751097 229.275251 717.273149 226.745884 719.559831
C 224.216516 721.846513 223.10464 723.711129 223.655132 724.743019
C 224.205624 725.774908 226.373539 725.889822 229.68142 725.062451
C 232.9893 724.235081 237.167072 722.532977 241.294629 720.331009
z
" clip-path="url(#pb5e59cc171)" style="fill: #add8e6; opacity: 0.7; stroke: #000000; stroke-linejoin: miter"/>
   </g>
   <g id="patch_48">
    <path d="M 88.452465 511.495972
C 86.991251 507.051847 85.14827 502.93428 83.329417 500.050118
C 81.510565 497.165956 79.864343 495.750677 78.753312 496.115981
C 77.64228 496.481284 77.157151 498.597345 77.404768 501.998124
C 77.652385 505.398904 78.612531 509.806744 80.073745 514.250869
C 81.534959 518.694994 83.37794 522.81256 85.196792 525.696722
C 87.015645 528.580885 88.661867 529.996163 89.772898 529.63086
C 90.883929 529.265556 91.369059 527.149496 91.121442 523.748716
C 90.873825 520.347937 89.913679 515.940097 88.452465 511.495972
z
" clip-path="url(#pb5e59cc171)" style="fill: #add8e6; opacity: 0.7; stroke: #000000; stroke-linejoin: miter"/>
   </g>
   <g id="patch_49">
    <path d="M 270.998703 750.871957
C 266.341407 750.430382 261.830375 750.469424 258.459109 750.980485
C 255.087844 751.491546 253.131593 752.432899 253.0212 753.597223
C 252.910806 754.761547 254.655282 756.05378 257.870427 757.189322
C 261.085573 758.324863 265.508885 759.211003 270.166181 759.652578
C 274.823477 760.094153 279.334509 760.05511 282.705774 759.54405
C 286.07704 759.032989 288.03329 758.091635 288.143684 756.927311
C 288.254078 755.762987 286.509602 754.470755 283.294456 753.335213
C 280.079311 752.199671 275.655999 751.313532 270.998703 750.871957
z
" clip-path="url(#pb5e59cc171)" style="fill: #add8e6; opacity: 0.7; stroke: #000000; stroke-linejoin: miter"/>
   </g>
   <g id="patch_50">
    <path d="M 308.617426 704.005684
C 312.552909 701.476383 316.07651 698.65944 318.412196 696.175253
C 320.747882 693.691065 321.704955 691.742457 321.07263 690.758586
C 320.440304 689.774715 318.270208 689.83591 315.04028 690.928694
C 311.810351 692.021478 307.784299 694.056629 303.848815 696.585929
C 299.913332 699.11523 296.389731 701.932173 294.054045 704.41636
C 291.718359 706.900548 290.761286 708.849156 291.393611 709.833027
C 292.025937 710.816898 294.196033 710.755703 297.425961 709.662919
C 300.65589 708.570135 304.681942 706.534984 308.617426 704.005684
z
" clip-path="url(#pb5e59cc171)" style="fill: #add8e6; opacity: 0.7; stroke: #000000; stroke-linejoin: miter"/>
   </g>
   <g id="patch_51">
    <path d="M 124.583009 673.609133
C 124.219532 668.945092 123.407632 664.507553 122.326121 661.273833
C 121.24461 658.040112 119.981789 656.274229 118.815779 656.365098
C 117.649768 656.455967 116.675769 658.39617 116.108292 661.758399
C 115.540816 665.120629 115.426194 669.630373 115.789671 674.294414
C 116.153149 678.958455 116.965048 683.395994 118.046559 686.629715
C 119.12807 689.863435 120.390892 691.629319 121.556902 691.538449
C 122.722912 691.44758 123.696912 689.507377 124.264388 686.145148
C 124.831865 682.782919 124.946486 678.273174 124.583009 673.609133
z
" clip-path="url(#pb5e59cc171)" style="fill: #add8e6; opacity: 0.7; stroke: #000000; stroke-linejoin: miter"/>
   </g>
   <g id="patch_52">
    <path d="M 195.570995 676.164018
C 193.960723 671.771704 191.979914 667.71864 190.064821 664.897464
C 188.149727 662.076288 186.456708 660.717338 185.358629 661.119906
C 184.260551 661.522475 183.847068 663.653693 184.209244 667.044186
C 184.57142 670.43468 185.679686 674.807628 187.289959 679.199941
C 188.900232 683.592255 190.88104 687.645319 192.796133 690.466495
C 194.711227 693.287671 196.404247 694.646621 197.502325 694.244053
C 198.600403 693.841484 199.013887 691.710266 198.65171 688.319772
C 198.289534 684.929279 197.181268 680.556331 195.570995 676.164018
z
" clip-path="url(#pb5e59cc171)" style="fill: #add8e6; opacity: 0.7; stroke: #000000; stroke-linejoin: miter"/>
   </g>
   <g id="patch_53">
    <path d="M 175.386477 626.98713
C 171.733865 624.064149 167.940034 621.623292 164.840532 620.202129
C 161.74103 618.780967 159.588918 618.49553 158.858173 619.408683
C 158.127427 620.321836 158.877712 622.359024 160.943784 625.07158
C 163.009856 627.784137 166.22303 630.950593 169.875643 633.873573
C 173.528255 636.796554 177.322086 639.237411 180.421588 640.658574
C 183.52109 642.079736 185.673202 642.365173 186.403947 641.45202
C 187.134692 640.538867 186.384408 638.501679 184.318336 635.789123
C 182.252264 633.076566 179.039089 629.91011 175.386477 626.98713
z
" clip-path="url(#pb5e59cc171)" style="fill: #add8e6; opacity: 0.7; stroke: #000000; stroke-linejoin: miter"/>
   </g>
   <g id="patch_54">
    <path d="M 129.075368 612.495071
C 127.736156 608.012672 126.006396 603.846275 124.267047 600.913481
C 122.527698 597.980687 120.92077 596.520946 119.80017 596.855749
C 118.67957 597.190552 118.136791 599.292563 118.291372 602.69884
C 118.445954 606.105116 119.285275 610.53755 120.624487 615.01995
C 121.963698 619.50235 123.693458 623.668747 125.432807 626.601541
C 127.172156 629.534334 128.779084 630.994075 129.899684 630.659273
C 131.020284 630.32447 131.563064 628.222458 131.408482 624.816182
C 131.253901 621.409905 130.414579 616.977471 129.075368 612.495071
z
" clip-path="url(#pb5e59cc171)" style="fill: #add8e6; opacity: 0.7; stroke: #000000; stroke-linejoin: miter"/>
   </g>
   <g id="patch_55">
    <path d="M 83.179568 590.802252
C 87.20235 588.414236 90.823718 585.724138 93.246109 583.324422
C 95.6685 580.924706 96.694136 579.011297 96.097132 578.005601
C 95.500128 576.999906 93.329227 576.984035 90.062545 577.961483
C 86.795863 578.938931 82.70011 580.829894 78.677328 583.21791
C 74.654547 585.605926 71.033178 588.296023 68.610787 590.695739
C 66.188397 593.095456 65.162761 595.008865 65.759765 596.01456
C 66.356769 597.020255 68.52767 597.036127 71.794352 596.058679
C 75.061033 595.081231 79.156786 593.190267 83.179568 590.802252
z
" clip-path="url(#pb5e59cc171)" style="fill: #add8e6; opacity: 0.7; stroke: #000000; stroke-linejoin: miter"/>
   </g>
   <g id="patch_56">
    <path d="M 348.016821 531.975862
C 350.711442 528.151675 352.916221 524.215956 354.145579 521.035501
C 355.374937 517.855046 355.528503 515.689525 354.572457 515.01587
C 353.61641 514.342214 351.628807 515.215425 349.047395 517.443187
C 346.465982 519.670949 343.501521 523.071376 340.806899 526.895563
C 338.112277 530.719751 335.907499 534.65547 334.678141 537.835925
C 333.448782 541.01638 333.295216 543.1819 334.251263 543.855556
C 335.20731 544.529211 337.194913 543.656 339.776325 541.428238
C 342.357738 539.200476 345.322199 535.800049 348.016821 531.975862
z
" clip-path="url(#pb5e59cc171)" style="fill: #add8e6; opacity: 0.7; stroke: #000000; stroke-linejoin: miter"/>
   </g>
   <g id="patch_57">
    <path d="M 198.192644 726.247371
C 198.263526 721.569725 197.866902 717.075994 197.090124 713.755869
C 196.313347 710.435743 195.219836 708.560298 194.050424 708.542577
C 192.881013 708.524857 191.731178 710.366308 190.854158 713.661373
C 189.977138 716.956438 189.444538 721.436088 189.373656 726.113734
C 189.302774 730.79138 189.699398 735.285111 190.476175 738.605236
C 191.252953 741.925362 192.346464 743.800807 193.515876 743.818528
C 194.685287 743.836248 195.835121 741.994797 196.712141 738.699732
C 197.589161 735.404667 198.121762 730.925017 198.192644 726.247371
z
" clip-path="url(#pb5e59cc171)" style="fill: #add8e6; opacity: 0.7; stroke: #000000; stroke-linejoin: miter"/>
   </g>
   <g id="patch_58">
    <path d="M 145.453417 573.709945
C 148.062108 569.826632 150.178592 565.842735 151.336736 562.635662
C 152.494881 559.428589 152.600128 557.260183 151.6293 556.60801
C 150.658472 555.955838 148.690831 556.873145 146.159728 559.157906
C 143.628626 561.442667 140.740714 564.908341 138.132022 568.791654
C 135.52333 572.674968 133.406847 576.658864 132.248702 579.865937
C 131.090558 583.07301 130.98531 585.241416 131.956138 585.893589
C 132.926967 586.545762 134.894607 585.628455 137.42571 583.343694
C 139.956813 581.058932 142.844725 577.593258 145.453417 573.709945
z
" clip-path="url(#pb5e59cc171)" style="fill: #add8e6; opacity: 0.7; stroke: #000000; stroke-linejoin: miter"/>
   </g>
   <g id="patch_59">
    <path d="M 219.110441 608.135328
C 223.021674 605.568687 226.518306 602.718336 228.830243 600.212032
C 231.142181 597.705728 232.080665 595.748099 231.439004 594.770291
C 230.797344 593.792482 228.627929 593.874328 225.408547 594.997802
C 222.189165 596.121277 218.182664 598.194653 214.271431 600.761294
C 210.360197 603.327935 206.863565 606.178286 204.551628 608.68459
C 202.239691 611.190894 201.301207 613.148523 201.942867 614.126331
C 202.584527 615.104139 204.753943 615.022294 207.973325 613.898819
C 211.192707 612.775345 215.199207 610.701969 219.110441 608.135328
z
" clip-path="url(#pb5e59cc171)" style="fill: #add8e6; opacity: 0.7; stroke: #000000; stroke-linejoin: miter"/>
   </g>
   <g id="patch_60">
    <path d="M 240.211747 501.148238
C 244.710307 499.864357 248.897701 498.186063 251.851703 496.482982
C 254.805705 494.7799 256.285135 493.19108 255.964164 492.06644
C 255.643194 490.9418 253.54803 490.373162 250.140107 490.485762
C 246.732185 490.598363 242.289746 491.383008 237.791186 492.666889
C 233.292625 493.950769 229.105232 495.629063 226.15123 497.332144
C 223.197228 499.035226 221.717798 500.624046 222.038768 501.748686
C 222.359739 502.873326 224.454903 503.441964 227.862825 503.329364
C 231.270748 503.216764 235.713187 502.432118 240.211747 501.148238
z
" clip-path="url(#pb5e59cc171)" style="fill: #add8e6; opacity: 0.7; stroke: #000000; stroke-linejoin: miter"/>
   </g>
   <g id="patch_61">
    <path d="M 127.554457 750.498725
C 129.99466 746.507384 131.938803 742.436605 132.958711 739.18293
C 133.978619 735.929255 133.991021 733.758332 132.993186 733.148281
C 131.995351 732.53823 130.068747 733.53886 127.637687 735.929793
C 125.206627 738.320726 122.469596 741.906754 120.029393 745.898095
C 117.58919 749.889436 115.645047 753.960215 114.625139 757.21389
C 113.605231 760.467565 113.592829 762.638489 114.590664 763.248539
C 115.588499 763.85859 117.515103 762.85796 119.946163 760.467027
C 122.377223 758.076094 125.114254 754.490066 127.554457 750.498725
z
" clip-path="url(#pb5e59cc171)" style="fill: #add8e6; opacity: 0.7; stroke: #000000; stroke-linejoin: miter"/>
   </g>
   <g id="patch_62">
    <path d="M 273.137255 548.873305
C 269.61578 545.793597 265.932166 543.189385 262.897686 541.634217
C 259.863206 540.079049 257.725612 539.699898 256.955685 540.580267
C 256.185758 541.460636 256.846359 543.528647 258.791997 546.328844
C 260.737636 549.129042 263.809459 552.432802 267.330935 555.51251
C 270.85241 558.592219 274.536025 561.19643 277.570505 562.751598
C 280.604984 564.306766 282.742578 564.685918 283.512505 563.805549
C 284.282432 562.92518 283.621832 560.857169 281.676193 558.056972
C 279.730555 555.256774 276.658731 551.953014 273.137255 548.873305
z
" clip-path="url(#pb5e59cc171)" style="fill: #add8e6; opacity: 0.7; stroke: #000000; stroke-linejoin: miter"/>
   </g>
   <g id="patch_63">
    <path d="M 247.15657 670.633272
C 251.741803 669.705354 256.047687 668.359882 259.125902 666.893182
C 262.204117 665.426482 263.80334 663.958303 263.57136 662.811995
C 263.33938 661.665687 261.295138 660.93484 257.888855 660.780416
C 254.482571 660.625991 249.992354 661.060596 245.407121 661.988515
C 240.821888 662.916434 236.516004 664.261905 233.437789 665.728605
C 230.359574 667.195305 228.760351 668.663484 228.992331 669.809792
C 229.224311 670.9561 231.268553 671.686947 234.674836 671.841372
C 238.08112 671.995796 242.571337 671.561191 247.15657 670.633272
z
" clip-path="url(#pb5e59cc171)" style="fill: #add8e6; opacity: 0.7; stroke: #000000; stroke-linejoin: miter"/>
   </g>
   <g id="patch_64">
    <path d="M 323.551171 629.904785
C 327.903027 628.188177 331.906725 626.109393 334.680495 624.126261
C 337.454266 622.143129 338.771644 620.417563 338.342492 619.329599
C 337.91334 618.241635 335.772696 617.880101 332.392013 618.324619
C 329.01133 618.769137 324.666625 619.983416 320.314769 621.700024
C 315.962913 623.416632 311.959216 625.495416 309.185445 627.478547
C 306.411675 629.461679 305.094297 631.187245 305.523449 632.275209
C 305.952601 633.363173 308.093244 633.724708 311.473927 633.280189
C 314.85461 632.835671 319.199315 631.621393 323.551171 629.904785
z
" clip-path="url(#pb5e59cc171)" style="fill: #add8e6; opacity: 0.7; stroke: #000000; stroke-linejoin: miter"/>
   </g>
   <g id="matplotlib.axis_5">
    <g id="xtick_13">
     <g id="line2d_49">
      <path d="M 34.538438 794.237812
L 34.538438 441.437812
" clip-path="url(#pb5e59cc171)" style="fill: none; stroke: #b0b0b0; stroke-opacity: 0.3; stroke-width: 0.8; stroke-linecap: square"/>
     </g>
     <g id="line2d_50">
      <g>
       <use xlink:href="#mdc13752f96" x="34.538438" y="794.237812" style="fill: #6c7a8d; stroke: #6c7a8d; stroke-width: 0.8"/>
      </g>
     </g>
     <g id="text_31">
      <text style="font-size: 9px; font-family: 'Times New Roman', 'DejaVu Serif', serif; text-anchor: middle; fill: #6c7a8d" x="34.538438" y="808.076406" transform="rotate(-0 34.538438 808.076406)">0</text>
     </g>
    </g>
    <g id="xtick_14">
     <g id="line2d_51">
      <path d="M 105.098438 794.237812
L 105.098438 441.437812
" clip-path="url(#pb5e59cc171)" style="fill: none; stroke: #b0b0b0; stroke-opacity: 0.3; stroke-width: 0.8; stroke-linecap: square"/>
     </g>
     <g id="line2d_52">
      <g>
       <use xlink:href="#mdc13752f96" x="105.098438" y="794.237812" style="fill: #6c7a8d; stroke: #6c7a8d; stroke-width: 0.8"/>
      </g>
     </g>
     <g id="text_32">
      <text style="font-size: 9px; font-family: 'Times New Roman', 'DejaVu Serif', serif; text-anchor: middle; fill: #6c7a8d" x="105.098438" y="808.076406" transform="rotate(-0 105.098438 808.076406)">2</text>
     </g>
    </g>
    <g id="xtick_15">
     <g id="line2d_53">
      <path d="M 175.658438 794.237812
L 175.658438 441.437812
" clip-path="url(#pb5e59cc171)" style="fill: none; stroke: #b0b0b0; stroke-opacity: 0.3; stroke-width: 0.8; stroke-linecap: square"/>
     </g>
     <g id="line2d_54">
      <g>
       <use xlink:href="#mdc13752f96" x="175.658438" y="794.237812" style="fill: #6c7a8d; stroke: #6c7a8d; stroke-width: 0.8"/>
      </g>
     </g>
     <g id="text_33">
      <text style="font-size: 9px; font-family: 'Times New Roman', 'DejaVu Serif', serif; text-anchor: middle; fill: #6c7a8d" x="175.658438" y="808.076406" transform="rotate(-0 175.658438 808.076406)">4</text>
     </g>
    </g>
    <g id="xtick_16">
     <g id="line2d_55">
      <path d="M 246.218438 794.237812
L 246.218438 441.437812
" clip-path="url(#pb5e59cc171)" style="fill: none; stroke: #b0b0b0; stroke-opacity: 0.3; stroke-width: 0.8; stroke-linecap: square"/>
     </g>
     <g id="line2d_56">
      <g>
       <use xlink:href="#mdc13752f96" x="246.218438" y="794.237812" style="fill: #6c7a8d; stroke: #6c7a8d; stroke-width: 0.8"/>
      </g>
     </g>
     <g id="text_34">
      <text style="font-size: 9px; font-family: 'Times New Roman', 'DejaVu Serif', serif; text-anchor: middle; fill: #6c7a8d" x="246.218438" y="808.076406" transform="rotate(-0 246.218438 808.076406)">6</text>
     </g>
    </g>
    <g id="xtick_17">
     <g id="line2d_57">
      <path d="M 316.778438 794.237812
L 316.778438 441.437812
" clip-path="url(#pb5e59cc171)" style="fill: none; stroke: #b0b0b0; stroke-opacity: 0.3; stroke-width: 0.8; stroke-linecap: square"/>
     </g>
     <g id="line2d_58">
      <g>
       <use xlink:href="#mdc13752f96" x="316.778438" y="794.237812" style="fill: #6c7a8d; stroke: #6c7a8d; stroke-width: 0.8"/>
      </g>
     </g>
     <g id="text_35">
      <text style="font-size: 9px; font-family: 'Times New Roman', 'DejaVu Serif', serif; text-anchor: middle; fill: #6c7a8d" x="316.778438" y="808.076406" transform="rotate(-0 316.778438 808.076406)">8</text>
     </g>
    </g>
    <g id="xtick_18">
     <g id="line2d_59">
      <path d="M 387.338438 794.237812
L 387.338438 441.437812
" clip-path="url(#pb5e59cc171)" style="fill: none; stroke: #b0b0b0; stroke-opacity: 0.3; stroke-width: 0.8; stroke-linecap: square"/>
     </g>
     <g id="line2d_60">
      <g>
       <use xlink:href="#mdc13752f96" x="387.338438" y="794.237812" style="fill: #6c7a8d; stroke: #6c7a8d; stroke-width: 0.8"/>
      </g>
     </g>
     <g id="text_36">
      <text style="font-size: 9px; font-family: 'Times New Roman', 'DejaVu Serif', serif; text-anchor: middle; fill: #6c7a8d" x="387.338438" y="808.076406" transform="rotate(-0 387.338438 808.076406)">10</text>
     </g>
    </g>
    <g id="text_37">
     <text style="font-size: 11px; font-family: 'Times New Roman', 'DejaVu Serif', serif; text-anchor: middle; fill: #2e3440" x="210.938438" y="822.306406" transform="rotate(-0 210.938438 822.306406)">X (μm)</text>
    </g>
   </g>
   <g id="matplotlib.axis_6">
    <g id="ytick_13">
     <g id="line2d_61">
      <path d="M 34.538438 794.237812
L 387.338438 794.237812
" clip-path="url(#pb5e59cc171)" style="fill: none; stroke: #b0b0b0; stroke-opacity: 0.3; stroke-width: 0.8; stroke-linecap: square"/>
     </g>
     <g id="line2d_62">
      <g>
       <use xlink:href="#mcb11e1a937" x="34.538438" y="794.237812" style="fill: #6c7a8d; stroke: #6c7a8d; stroke-width: 0.8"/>
      </g>
     </g>
     <g id="text_38">
      <text style="font-size: 9px; font-family: 'Times New Roman', 'DejaVu Serif', serif; text-anchor: end; fill: #6c7a8d" x="27.538438" y="797.657109" transform="rotate(-0 27.538438 797.657109)">0</text>
     </g>
    </g>
    <g id="ytick_14">
     <g id="line2d_63">
      <path d="M 34.538438 723.677812
L 387.338438 723.677812
" clip-path="url(#pb5e59cc171)" style="fill: none; stroke: #b0b0b0; stroke-opacity: 0.3; stroke-width: 0.8; stroke-linecap: square"/>
     </g>
     <g id="line2d_64">
      <g>
       <use xlink:href="#mcb11e1a937" x="34.538438" y="723.677812" style="fill: #6c7a8d; stroke: #6c7a8d; stroke-width: 0.8"/>
      </g>
     </g>
     <g id="text_39">
      <text style="font-size: 9px; font-family: 'Times New Roman', 'DejaVu Serif', serif; text-anchor: end; fill: #6c7a8d" x="27.538438" y="727.097109" transform="rotate(-0 27.538438 727.097109)">2</text>
     </g>
    </g>
    <g id="ytick_15">
     <g id="line2d_65">
      <path d="M 34.538438 653.117812
L 387.338438 653.117812
" clip-path="url(#pb5e59cc171)" style="fill: none; stroke: #b0b0b0; stroke-opacity: 0.3; stroke-width: 0.8; stroke-linecap: square"/>
     </g>
     <g id="line2d_66">
      <g>
       <use xlink:href="#mcb11e1a937" x="34.538438" y="653.117812" style="fill: #6c7a8d; stroke: #6c7a8d; stroke-width: 0.8"/>
      </g>
     </g>
     <g id="text_40">
      <text style="font-size: 9px; font-family: 'Times New Roman', 'DejaVu Serif', serif; text-anchor: end; fill: #6c7a8d" x="27.538438" y="656.537109" transform="rotate(-0 27.538438 656.537109)">4</text>
     </g>
    </g>
    <g id="ytick_16">
     <g id="line2d_67">
      <path d="M 34.538438 582.557812
L 387.338438 582.557812
" clip-path="url(#pb5e59cc171)" style="fill: none; stroke: #b0b0b0; stroke-opacity: 0.3; stroke-width: 0.8; stroke-linecap: square"/>
     </g>
     <g id="line2d_68">
      <g>
       <use xlink:href="#mcb11e1a937" x="34.538438" y="582.557812" style="fill: #6c7a8d; stroke: #6c7a8d; stroke-width: 0.8"/>
      </g>
     </g>
     <g id="text_41">
      <text style="font-size: 9px; font-family: 'Times New Roman', 'DejaVu Serif', serif; text-anchor: end; fill: #6c7a8d" x="27.538438" y="585.977109" transform="rotate(-0 27.538438 585.977109)">6</text>
     </g>
    </g>
    <g id="ytick_17">
     <g id="line2d_69">
      <path d="M 34.538438 511.997812
L 387.338438 511.997812
" clip-path="url(#pb5e59cc171)" style="fill: none; stroke: #b0b0b0; stroke-opacity: 0.3; stroke-width: 0.8; stroke-linecap: square"/>
     </g>
     <g id="line2d_70">
      <g>
       <use xlink:href="#mcb11e1a937" x="34.538438" y="511.997812" style="fill: #6c7a8d; stroke: #6c7a8d; stroke-width: 0.8"/>
      </g>
     </g>
     <g id="text_42">
      <text style="font-size: 9px; font-family: 'Times New Roman', 'DejaVu Serif', serif; text-anchor: end; fill: #6c7a8d" x="27.538438" y="515.417109" transform="rotate(-0 27.538438 515.417109)">8</text>
     </g>
    </g>
    <g id="ytick_18">
     <g id="line2d_71">
      <path d="M 34.538438 441.437812
L 387.338438 441.437812
" clip-path="url(#pb5e59cc171)" style="fill: none; stroke: #b0b0b0; stroke-opacity: 0.3; stroke-width: 0.8; stroke-linecap: square"/>
     </g>
     <g id="line2d_72">
      <g>
       <use xlink:href="#mcb11e1a937" x="34.538438" y="441.437812" style="fill: #6c7a8d; stroke: #6c7a8d; stroke-width: 0.8"/>
      </g>
     </g>
     <g id="text_43">
      <text style="font-size: 9px; font-family: 'Times New Roman', 'DejaVu Serif', serif; text-anchor: end; fill: #6c7a8d" x="27.538438" y="444.857109" transform="rotate(-0 27.538438 444.857109)">10</text>
     </g>
    </g>
    <g id="text_44">
     <text style="font-size: 11px; font-family: 'Times New Roman', 'DejaVu Serif', serif; text-anchor: middle; fill: #2e3440" x="9.798281" y="617.837812" transform="rotate(-90 9.798281 617.837812)">Y (μm)</text>
    </g>
   </g>
   <g id="patch_65">
    <path d="M 34.538438 794.237812
L 34.538438 441.437812
" style="fill: none; stroke: #6c7a8d; stroke-width: 0.8; stroke-linejoin: miter; stroke-linecap: square"/>
   </g>
   <g id="patch_66">
    <path d="M 387.338438 794.237812
L 387.338438 441.437812
" style="fill: none; stroke: #6c7a8d; stroke-width: 0.8; stroke-linejoin: miter; stroke-linecap: square"/>
   </g>
   <g id="patch_67">
    <path d="M 34.538438 794.237812
L 387.338438 794.237812
" style="fill: none; stroke: #6c7a8d; stroke-width: 0.8; stroke-linejoin: miter; stroke-linecap: square"/>
   </g>
   <g id="patch_68">
    <path d="M 34.538438 441.437812
L 387.338438 441.437812
" style="fill: none; stroke: #6c7a8d; stroke-width: 0.8; stroke-linejoin: miter; stroke-linecap: square"/>
   </g>
   <g id="text_45">
    <text style="font-weight: 700; font-size: 14px; font-family: 'Times New Roman', 'DejaVu Serif', serif; text-anchor: middle; fill: #2e3440" x="210.938438" y="435.437812" transform="rotate(-0 210.938438 435.437812)">Glass Fiber</text>
   </g>
  </g>
  <g id="axes_4">
   <g id="patch_69">
    <path d="M 460.647528 794.237812
L 813.447528 794.237812
L 813.447528 441.437812
L 460.647528 441.437812
z
" style="fill: #ffffff"/>
   </g>
   <g id="patch_70">
    <path d="M 460.647528 794.237812
L 813.447528 794.237812
L 813.447528 441.437812
L 460.647528 441.437812
z
" clip-path="url(#p521176d4b5)" style="fill: #d3d3d3; opacity: 0.3; stroke: #000000; stroke-width: 2; stroke-linejoin: miter"/>
   </g>
   <g id="patch_71">
    <path d="M 600.088553 493.882786
C 602.427644 493.882786 604.671247 492.953456 606.325235 491.299468
C 607.979222 489.645481 608.908553 487.401878 608.908553 485.062786
C 608.908553 482.723695 607.979222 480.480092 606.325235 478.826105
C 604.671247 477.172117 602.427644 476.242786 600.088553 476.242786
C 597.749462 476.242786 595.505858 477.172117 593.851871 478.826105
C 592.197884 480.480092 591.268553 482.723695 591.268553 485.062786
C 591.268553 487.401878 592.197884 489.645481 593.851871 491.299468
C 595.505858 492.953456 597.749462 493.882786 600.088553 493.882786
z
" clip-path="url(#p521176d4b5)" style="fill: #ff0000; opacity: 0.7; stroke: #000000; stroke-linejoin: miter"/>
   </g>
   <g id="patch_72">
    <path d="M 666.111134 727.990593
C 668.450225 727.990593 670.693828 727.061262 672.347816 725.407275
C 674.001803 723.753288 674.931134 721.509685 674.931134 719.170593
C 674.931134 716.831502 674.001803 714.587899 672.347816 712.933911
C 670.693828 711.279924 668.450225 710.350593 666.111134 710.350593
C 663.772043 710.350593 661.528439 711.279924 659.874452 712.933911
C 658.220465 714.587899 657.291134 716.831502 657.291134 719.170593
C 657.291134 721.509685 658.220465 723.753288 659.874452 725.407275
C 661.528439 727.061262 663.772043 727.990593 666.111134 727.990593
z
" clip-path="url(#p521176d4b5)" style="fill: #ff0000; opacity: 0.7; stroke: #000000; stroke-linejoin: miter"/>
   </g>
   <g id="patch_73">
    <path d="M 506.864264 518.786714
C 509.203355 518.786714 511.446958 517.857383 513.100945 516.203396
C 514.754933 514.549409 515.684264 512.305805 515.684264 509.966714
C 515.684264 507.627623 514.754933 505.38402 513.100945 503.730032
C 511.446958 502.076045 509.203355 501.146714 506.864264 501.146714
C 504.525172 501.146714 502.281569 502.076045 500.627582 503.730032
C 498.973594 505.38402 498.044264 507.627623 498.044264 509.966714
C 498.044264 512.305805 498.973594 514.549409 500.627582 516.203396
C 502.281569 517.857383 504.525172 518.786714 506.864264 518.786714
z
" clip-path="url(#p521176d4b5)" style="fill: #ff0000; opacity: 0.7; stroke: #000000; stroke-linejoin: miter"/>
   </g>
   <g id="patch_74">
    <path d="M 698.343213 767.887867
C 700.682304 767.887867 702.925907 766.958537 704.579895 765.304549
C 706.233882 763.650562 707.163213 761.406959 707.163213 759.067867
C 707.163213 756.728776 706.233882 754.485173 704.579895 752.831186
C 702.925907 751.177198 700.682304 750.247867 698.343213 750.247867
C 696.004122 750.247867 693.760518 751.177198 692.106531 752.831186
C 690.452544 754.485173 689.523213 756.728776 689.523213 759.067867
C 689.523213 761.406959 690.452544 763.650562 692.106531 765.304549
C 693.760518 766.958537 696.004122 767.887867 698.343213 767.887867
z
" clip-path="url(#p521176d4b5)" style="fill: #ff0000; opacity: 0.7; stroke: #000000; stroke-linejoin: miter"/>
   </g>
   <g id="patch_75">
    <path d="M 734.981141 711.399259
C 737.320232 711.399259 739.563836 710.469928 741.217823 708.81594
C 742.87181 707.161953 743.801141 704.91835 743.801141 702.579259
C 743.801141 700.240167 742.87181 697.996564 741.217823 696.342577
C 739.563836 694.688589 737.320232 693.759259 734.981141 693.759259
C 732.64205 693.759259 730.398447 694.688589 728.744459 696.342577
C 727.090472 697.996564 726.161141 700.240167 726.161141 702.579259
C 726.161141 704.91835 727.090472 707.161953 728.744459 708.81594
C 730.398447 710.469928 732.64205 711.399259 734.981141 711.399259
z
" clip-path="url(#p521176d4b5)" style="fill: #ff0000; opacity: 0.7; stroke: #000000; stroke-linejoin: miter"/>
   </g>
   <g id="patch_76">
    <path d="M 543.782296 684.325699
C 546.121387 684.325699 548.364991 683.396368 550.018978 681.74238
C 551.672965 680.088393 552.602296 677.84479 552.602296 675.505699
C 552.602296 673.166607 551.672965 670.923004 550.018978 669.269017
C 548.364991 667.615029 546.121387 666.685699 543.782296 666.685699
C 541.443205 666.685699 539.199602 667.615029 537.545614 669.269017
C 535.891627 670.923004 534.962296 673.166607 534.962296 675.505699
C 534.962296 677.84479 535.891627 680.088393 537.545614 681.74238
C 539.199602 683.396368 541.443205 684.325699 543.782296 684.325699
z
" clip-path="url(#p521176d4b5)" style="fill: #ff0000; opacity: 0.7; stroke: #000000; stroke-linejoin: miter"/>
   </g>
   <g id="patch_77">
    <path d="M 616.999348 688.159203
C 619.338439 688.159203 621.582042 687.229872 623.236029 685.575884
C 624.890017 683.921897 625.819348 681.678294 625.819348 679.339203
C 625.819348 677.000111 624.890017 674.756508 623.236029 673.102521
C 621.582042 671.448533 619.338439 670.519203 616.999348 670.519203
C 614.660256 670.519203 612.416653 671.448533 610.762666 673.102521
C 609.108678 674.756508 608.179348 677.000111 608.179348 679.339203
C 608.179348 681.678294 609.108678 683.921897 610.762666 685.575884
C 612.416653 687.229872 614.660256 688.159203 616.999348 688.159203
z
" clip-path="url(#p521176d4b5)" style="fill: #ff0000; opacity: 0.7; stroke: #000000; stroke-linejoin: miter"/>
   </g>
   <g id="patch_78">
    <path d="M 597.679331 639.599068
C 600.018422 639.599068 602.262026 638.669737 603.916013 637.01575
C 605.57 635.361762 606.499331 633.118159 606.499331 630.779068
C 606.499331 628.439977 605.57 626.196374 603.916013 624.542386
C 602.262026 622.888399 600.018422 621.959068 597.679331 621.959068
C 595.34024 621.959068 593.096637 622.888399 591.442649 624.542386
C 589.788662 626.196374 588.859331 628.439977 588.859331 630.779068
C 588.859331 633.118159 589.788662 635.361762 591.442649 637.01575
C 593.096637 638.669737 595.34024 639.599068 597.679331 639.599068
z
" clip-path="url(#p521176d4b5)" style="fill: #ff0000; opacity: 0.7; stroke: #000000; stroke-linejoin: miter"/>
   </g>
   <g id="patch_79">
    <path d="M 548.575029 622.464518
C 550.91412 622.464518 553.157723 621.535187 554.81171 619.8812
C 556.465698 618.227212 557.395029 615.983609 557.395029 613.644518
C 557.395029 611.305426 556.465698 609.061823 554.81171 607.407836
C 553.157723 605.753849 550.91412 604.824518 548.575029 604.824518
C 546.235937 604.824518 543.992334 605.753849 542.338347 607.407836
C 540.684359 609.061823 539.755029 611.305426 539.755029 613.644518
C 539.755029 615.983609 540.684359 618.227212 542.338347 619.8812
C 543.992334 621.535187 546.235937 622.464518 548.575029 622.464518
z
" clip-path="url(#p521176d4b5)" style="fill: #ff0000; opacity: 0.7; stroke: #000000; stroke-linejoin: miter"/>
   </g>
   <g id="patch_80">
    <path d="M 503.437263 594.97639
C 505.776354 594.97639 508.019957 594.047059 509.673944 592.393071
C 511.327932 590.739084 512.257263 588.495481 512.257263 586.15639
C 512.257263 583.817298 511.327932 581.573695 509.673944 579.919708
C 508.019957 578.265721 505.776354 577.33639 503.437263 577.33639
C 501.098171 577.33639 498.854568 578.265721 497.200581 579.919708
C 495.546593 581.573695 494.617263 583.817298 494.617263 586.15639
C 494.617263 588.495481 495.546593 590.739084 497.200581 592.393071
C 498.854568 594.047059 501.098171 594.97639 503.437263 594.97639
z
" clip-path="url(#p521176d4b5)" style="fill: #ff0000; opacity: 0.7; stroke: #000000; stroke-linejoin: miter"/>
   </g>
   <g id="patch_81">
    <path d="M 774.217138 535.807655
C 776.556229 535.807655 778.799832 534.878324 780.45382 533.224336
C 782.107807 531.570349 783.037138 529.326746 783.037138 526.987655
C 783.037138 524.648563 782.107807 522.40496 780.45382 520.750973
C 778.799832 519.096985 776.556229 518.167655 774.217138 518.167655
C 771.878046 518.167655 769.634443 519.096985 767.980456 520.750973
C 766.326469 522.40496 765.397138 524.648563 765.397138 526.987655
C 765.397138 529.326746 766.326469 531.570349 767.980456 533.224336
C 769.634443 534.878324 771.878046 535.807655 774.217138 535.807655
z
" clip-path="url(#p521176d4b5)" style="fill: #ff0000; opacity: 0.7; stroke: #000000; stroke-linejoin: miter"/>
   </g>
   <g id="patch_82">
    <path d="M 619.417171 738.000813
C 621.756263 738.000813 623.999866 737.071482 625.653853 735.417495
C 627.30784 733.763507 628.237171 731.519904 628.237171 729.180813
C 628.237171 726.841722 627.30784 724.598119 625.653853 722.944131
C 623.999866 721.290144 621.756263 720.360813 619.417171 720.360813
C 617.07808 720.360813 614.834477 721.290144 613.180489 722.944131
C 611.526502 724.598119 610.597171 726.841722 610.597171 729.180813
C 610.597171 731.519904 611.526502 733.763507 613.180489 735.417495
C 614.834477 737.071482 617.07808 738.000813 619.417171 738.000813
z
" clip-path="url(#p521176d4b5)" style="fill: #ff0000; opacity: 0.7; stroke: #000000; stroke-linejoin: miter"/>
   </g>
   <g id="patch_83">
    <path d="M 565.987006 578.780698
C 568.326097 578.780698 570.5697 577.851367 572.223687 576.19738
C 573.877675 574.543392 574.807006 572.299789 574.807006 569.960698
C 574.807006 567.621606 573.877675 565.378003 572.223687 563.724016
C 570.5697 562.070029 568.326097 561.140698 565.987006 561.140698
C 563.647914 561.140698 561.404311 562.070029 559.750324 563.724016
C 558.096336 565.378003 557.167006 567.621606 557.167006 569.960698
C 557.167006 572.299789 558.096336 574.543392 559.750324 576.19738
C 561.404311 577.851367 563.647914 578.780698 565.987006 578.780698
z
" clip-path="url(#p521176d4b5)" style="fill: #ff0000; opacity: 0.7; stroke: #000000; stroke-linejoin: miter"/>
   </g>
   <g id="patch_84">
    <path d="M 642.959327 612.897525
C 645.298418 612.897525 647.542021 611.968194 649.196008 610.314207
C 650.849996 608.660219 651.779327 606.416616 651.779327 604.077525
C 651.779327 601.738433 650.849996 599.49483 649.196008 597.840843
C 647.542021 596.186856 645.298418 595.257525 642.959327 595.257525
C 640.620235 595.257525 638.376632 596.186856 636.722645 597.840843
C 635.068657 599.49483 634.139327 601.738433 634.139327 604.077525
C 634.139327 606.416616 635.068657 608.660219 636.722645 610.314207
C 638.376632 611.968194 640.620235 612.897525 642.959327 612.897525
z
" clip-path="url(#p521176d4b5)" style="fill: #ff0000; opacity: 0.7; stroke: #000000; stroke-linejoin: miter"/>
   </g>
   <g id="patch_85">
    <path d="M 665.887687 502.378725
C 668.226779 502.378725 670.470382 501.449395 672.124369 499.795407
C 673.778357 498.14142 674.707687 495.897817 674.707687 493.558725
C 674.707687 491.219634 673.778357 488.976031 672.124369 487.322044
C 670.470382 485.668056 668.226779 484.738725 665.887687 484.738725
C 663.548596 484.738725 661.304993 485.668056 659.651006 487.322044
C 657.997018 488.976031 657.067687 491.219634 657.067687 493.558725
C 657.067687 495.897817 657.997018 498.14142 659.651006 499.795407
C 661.304993 501.449395 663.548596 502.378725 665.887687 502.378725
z
" clip-path="url(#p521176d4b5)" style="fill: #ff0000; opacity: 0.7; stroke: #000000; stroke-linejoin: miter"/>
   </g>
   <g id="patch_86">
    <path d="M 547.487728 760.628396
C 549.826819 760.628396 552.070422 759.699065 553.72441 758.045078
C 555.378397 756.39109 556.307728 754.147487 556.307728 751.808396
C 556.307728 749.469305 555.378397 747.225701 553.72441 745.571714
C 552.070422 743.917727 549.826819 742.988396 547.487728 742.988396
C 545.148637 742.988396 542.905033 743.917727 541.251046 745.571714
C 539.597059 747.225701 538.667728 749.469305 538.667728 751.808396
C 538.667728 754.147487 539.597059 756.39109 541.251046 758.045078
C 542.905033 759.699065 545.148637 760.628396 547.487728 760.628396
z
" clip-path="url(#p521176d4b5)" style="fill: #ff0000; opacity: 0.7; stroke: #000000; stroke-linejoin: miter"/>
   </g>
   <g id="patch_87">
    <path d="M 733.889654 668.856563
C 736.228745 668.856563 738.472348 667.927233 740.126336 666.273245
C 741.780323 664.619258 742.709654 662.375655 742.709654 660.036563
C 742.709654 657.697472 741.780323 655.453869 740.126336 653.799882
C 738.472348 652.145894 736.228745 651.216563 733.889654 651.216563
C 731.550562 651.216563 729.306959 652.145894 727.652972 653.799882
C 725.998985 655.453869 725.069654 657.697472 725.069654 660.036563
C 725.069654 662.375655 725.998985 664.619258 727.652972 666.273245
C 729.306959 667.927233 731.550562 668.856563 733.889654 668.856563
z
" clip-path="url(#p521176d4b5)" style="fill: #ff0000; opacity: 0.7; stroke: #000000; stroke-linejoin: miter"/>
   </g>
   <g id="patch_88">
    <path d="M 729.97868 565.720121
C 732.317771 565.720121 734.561374 564.79079 736.215362 563.136803
C 737.869349 561.482816 738.79868 559.239213 738.79868 556.900121
C 738.79868 554.56103 737.869349 552.317427 736.215362 550.663439
C 734.561374 549.009452 732.317771 548.080121 729.97868 548.080121
C 727.639588 548.080121 725.395985 549.009452 723.741998 550.663439
C 722.088011 552.317427 721.15868 554.56103 721.15868 556.900121
C 721.15868 559.239213 722.088011 561.482816 723.741998 563.136803
C 725.395985 564.79079 727.639588 565.720121 729.97868 565.720121
z
" clip-path="url(#p521176d4b5)" style="fill: #ff0000; opacity: 0.7; stroke: #000000; stroke-linejoin: miter"/>
   </g>
   <g id="patch_89">
    <path d="M 713.871674 608.606285
C 716.210766 608.606285 718.454369 607.676955 720.108356 606.022967
C 721.762343 604.36898 722.691674 602.125377 722.691674 599.786285
C 722.691674 597.447194 721.762343 595.203591 720.108356 593.549604
C 718.454369 591.895616 716.210766 590.966285 713.871674 590.966285
C 711.532583 590.966285 709.28898 591.895616 707.634993 593.549604
C 705.981005 595.203591 705.051674 597.447194 705.051674 599.786285
C 705.051674 602.125377 705.981005 604.36898 707.634993 606.022967
C 709.28898 607.676955 711.532583 608.606285 713.871674 608.606285
z
" clip-path="url(#p521176d4b5)" style="fill: #ff0000; opacity: 0.7; stroke: #000000; stroke-linejoin: miter"/>
   </g>
   <g id="patch_90">
    <path d="M 677.232399 681.346313
C 679.57149 681.346313 681.815093 680.416982 683.46908 678.762995
C 685.123068 677.109007 686.052399 674.865404 686.052399 672.526313
C 686.052399 670.187221 685.123068 667.943618 683.46908 666.289631
C 681.815093 664.635644 679.57149 663.706313 677.232399 663.706313
C 674.893307 663.706313 672.649704 664.635644 670.995717 666.289631
C 669.341729 667.943618 668.412399 670.187221 668.412399 672.526313
C 668.412399 674.865404 669.341729 677.109007 670.995717 678.762995
C 672.649704 680.416982 674.893307 681.346313 677.232399 681.346313
z
" clip-path="url(#p521176d4b5)" style="fill: #ff0000; opacity: 0.7; stroke: #000000; stroke-linejoin: miter"/>
   </g>
   <g id="patch_91">
    <path d="M 610.647413 551.375514
C 612.986504 551.375514 615.230107 550.446183 616.884095 548.792196
C 618.538082 547.138208 619.467413 544.894605 619.467413 542.555514
C 619.467413 540.216422 618.538082 537.972819 616.884095 536.318832
C 615.230107 534.664845 612.986504 533.735514 610.647413 533.735514
C 608.308322 533.735514 606.064718 534.664845 604.410731 536.318832
C 602.756744 537.972819 601.827413 540.216422 601.827413 542.555514
C 601.827413 544.894605 602.756744 547.138208 604.410731 548.792196
C 606.064718 550.446183 608.308322 551.375514 610.647413 551.375514
z
" clip-path="url(#p521176d4b5)" style="fill: #ff0000; opacity: 0.7; stroke: #000000; stroke-linejoin: miter"/>
   </g>
   <g id="patch_92">
    <path d="M 743.314429 771.903798
C 745.653521 771.903798 747.897124 770.974467 749.551111 769.32048
C 751.205099 767.666493 752.134429 765.42289 752.134429 763.083798
C 752.134429 760.744707 751.205099 758.501104 749.551111 756.847116
C 747.897124 755.193129 745.653521 754.263798 743.314429 754.263798
C 740.975338 754.263798 738.731735 755.193129 737.077748 756.847116
C 735.42376 758.501104 734.494429 760.744707 734.494429 763.083798
C 734.494429 765.42289 735.42376 767.666493 737.077748 769.32048
C 738.731735 770.974467 740.975338 771.903798 743.314429 771.903798
z
" clip-path="url(#p521176d4b5)" style="fill: #ff0000; opacity: 0.7; stroke: #000000; stroke-linejoin: miter"/>
   </g>
   <g id="patch_93">
    <path d="M 773.278952 699.77977
C 775.618043 699.77977 777.861647 698.850439 779.515634 697.196451
C 781.169621 695.542464 782.098952 693.298861 782.098952 690.95977
C 782.098952 688.620678 781.169621 686.377075 779.515634 684.723088
C 777.861647 683.0691 775.618043 682.13977 773.278952 682.13977
C 770.939861 682.13977 768.696258 683.0691 767.04227 684.723088
C 765.388283 686.377075 764.458952 688.620678 764.458952 690.95977
C 764.458952 693.298861 765.388283 695.542464 767.04227 697.196451
C 768.696258 698.850439 770.939861 699.77977 773.278952 699.77977
z
" clip-path="url(#p521176d4b5)" style="fill: #ff0000; opacity: 0.7; stroke: #000000; stroke-linejoin: miter"/>
   </g>
   <g id="patch_94">
    <path d="M 676.023238 587.321562
C 678.36233 587.321562 680.605933 586.392231 682.25992 584.738244
C 683.913908 583.084257 684.843238 580.840653 684.843238 578.501562
C 684.843238 576.162471 683.913908 573.918868 682.25992 572.26488
C 680.605933 570.610893 678.36233 569.681562 676.023238 569.681562
C 673.684147 569.681562 671.440544 570.610893 669.786557 572.26488
C 668.132569 573.918868 667.203238 576.162471 667.203238 578.501562
C 667.203238 580.840653 668.132569 583.084257 669.786557 584.738244
C 671.440544 586.392231 673.684147 587.321562 676.023238 587.321562
z
" clip-path="url(#p521176d4b5)" style="fill: #ff0000; opacity: 0.7; stroke: #000000; stroke-linejoin: miter"/>
   </g>
   <g id="patch_95">
    <path d="M 584.251486 719.005698
C 586.590578 719.005698 588.834181 718.076367 590.488168 716.422379
C 592.142155 714.768392 593.071486 712.524789 593.071486 710.185698
C 593.071486 707.846606 592.142155 705.603003 590.488168 703.949016
C 588.834181 702.295028 586.590578 701.365698 584.251486 701.365698
C 581.912395 701.365698 579.668792 702.295028 578.014804 703.949016
C 576.360817 705.603003 575.431486 707.846606 575.431486 710.185698
C 575.431486 712.524789 576.360817 714.768392 578.014804 716.422379
C 579.668792 718.076367 581.912395 719.005698 584.251486 719.005698
z
" clip-path="url(#p521176d4b5)" style="fill: #ff0000; opacity: 0.7; stroke: #000000; stroke-linejoin: miter"/>
   </g>
   <g id="patch_96">
    <path d="M 514.540152 726.337933
C 516.879244 726.337933 519.122847 725.408602 520.776834 723.754615
C 522.430822 722.100627 523.360152 719.857024 523.360152 717.517933
C 523.360152 715.178842 522.430822 712.935238 520.776834 711.281251
C 519.122847 709.627264 516.879244 708.697933 514.540152 708.697933
C 512.201061 708.697933 509.957458 709.627264 508.303471 711.281251
C 506.649483 712.935238 505.720152 715.178842 505.720152 717.517933
C 505.720152 719.857024 506.649483 722.100627 508.303471 723.754615
C 509.957458 725.408602 512.201061 726.337933 514.540152 726.337933
z
" clip-path="url(#p521176d4b5)" style="fill: #ff0000; opacity: 0.7; stroke: #000000; stroke-linejoin: miter"/>
   </g>
   <g id="patch_97">
    <path d="M 776.390762 658.14994
C 778.729853 658.14994 780.973456 657.220609 782.627444 655.566622
C 784.281431 653.912634 785.210762 651.669031 785.210762 649.32994
C 785.210762 646.990849 784.281431 644.747246 782.627444 643.093258
C 780.973456 641.439271 778.729853 640.50994 776.390762 640.50994
C 774.05167 640.50994 771.808067 641.439271 770.15408 643.093258
C 768.500093 644.747246 767.570762 646.990849 767.570762 649.32994
C 767.570762 651.669031 768.500093 653.912634 770.15408 655.566622
C 771.808067 657.220609 774.05167 658.14994 776.390762 658.14994
z
" clip-path="url(#p521176d4b5)" style="fill: #ff0000; opacity: 0.7; stroke: #000000; stroke-linejoin: miter"/>
   </g>
   <g id="patch_98">
    <path d="M 541.928209 496.903999
C 544.267301 496.903999 546.510904 495.974668 548.164891 494.320681
C 549.818878 492.666694 550.748209 490.42309 550.748209 488.083999
C 550.748209 485.744908 549.818878 483.501305 548.164891 481.847317
C 546.510904 480.19333 544.267301 479.263999 541.928209 479.263999
C 539.589118 479.263999 537.345515 480.19333 535.691527 481.847317
C 534.03754 483.501305 533.108209 485.744908 533.108209 488.083999
C 533.108209 490.42309 534.03754 492.666694 535.691527 494.320681
C 537.345515 495.974668 539.589118 496.903999 541.928209 496.903999
z
" clip-path="url(#p521176d4b5)" style="fill: #ff0000; opacity: 0.7; stroke: #000000; stroke-linejoin: miter"/>
   </g>
   <g id="patch_99">
    <path d="M 745.182629 504.922105
C 747.52172 504.922105 749.765323 503.992774 751.41931 502.338786
C 753.073298 500.684799 754.002629 498.441196 754.002629 496.102105
C 754.002629 493.763013 753.073298 491.51941 751.41931 489.865423
C 749.765323 488.211435 747.52172 487.282105 745.182629 487.282105
C 742.843537 487.282105 740.599934 488.211435 738.945947 489.865423
C 737.291959 491.51941 736.362629 493.763013 736.362629 496.102105
C 736.362629 498.441196 737.291959 500.684799 738.945947 502.338786
C 740.599934 503.992774 742.843537 504.922105 745.182629 504.922105
z
" clip-path="url(#p521176d4b5)" style="fill: #ff0000; opacity: 0.7; stroke: #000000; stroke-linejoin: miter"/>
   </g>
   <g id="patch_100">
    <path d="M 500.341691 636.792224
C 502.680782 636.792224 504.924385 635.862893 506.578373 634.208905
C 508.23236 632.554918 509.161691 630.311315 509.161691 627.972224
C 509.161691 625.633132 508.23236 623.389529 506.578373 621.735542
C 504.924385 620.081554 502.680782 619.152224 500.341691 619.152224
C 498.0026 619.152224 495.758997 620.081554 494.105009 621.735542
C 492.451022 623.389529 491.521691 625.633132 491.521691 627.972224
C 491.521691 630.311315 492.451022 632.554918 494.105009 634.208905
C 495.758997 635.862893 498.0026 636.792224 500.341691 636.792224
z
" clip-path="url(#p521176d4b5)" style="fill: #ff0000; opacity: 0.7; stroke: #000000; stroke-linejoin: miter"/>
   </g>
   <g id="matplotlib.axis_7">
    <g id="xtick_19">
     <g id="line2d_73">
      <path d="M 460.647528 794.237812
L 460.647528 441.437812
" clip-path="url(#p521176d4b5)" style="fill: none; stroke: #b0b0b0; stroke-opacity: 0.3; stroke-width: 0.8; stroke-linecap: square"/>
     </g>
     <g id="line2d_74">
      <g>
       <use xlink:href="#mdc13752f96" x="460.647528" y="794.237812" style="fill: #6c7a8d; stroke: #6c7a8d; stroke-width: 0.8"/>
      </g>
     </g>
     <g id="text_46">
      <text style="font-size: 9px; font-family: 'Times New Roman', 'DejaVu Serif', serif; text-anchor: middle; fill: #6c7a8d" x="460.647528" y="808.076406" transform="rotate(-0 460.647528 808.076406)">0</text>
     </g>
    </g>
    <g id="xtick_20">
     <g id="line2d_75">
      <path d="M 531.207528 794.237812
L 531.207528 441.437812
" clip-path="url(#p521176d4b5)" style="fill: none; stroke: #b0b0b0; stroke-opacity: 0.3; stroke-width: 0.8; stroke-linecap: square"/>
     </g>
     <g id="line2d_76">
      <g>
       <use xlink:href="#mdc13752f96" x="531.207528" y="794.237812" style="fill: #6c7a8d; stroke: #6c7a8d; stroke-width: 0.8"/>
      </g>
     </g>
     <g id="text_47">
      <text style="font-size: 9px; font-family: 'Times New Roman', 'DejaVu Serif', serif; text-anchor: middle; fill: #6c7a8d" x="531.207528" y="808.076406" transform="rotate(-0 531.207528 808.076406)">2</text>
     </g>
    </g>
    <g id="xtick_21">
     <g id="line2d_77">
      <path d="M 601.767528 794.237812
L 601.767528 441.437812
" clip-path="url(#p521176d4b5)" style="fill: none; stroke: #b0b0b0; stroke-opacity: 0.3; stroke-width: 0.8; stroke-linecap: square"/>
     </g>
     <g id="line2d_78">
      <g>
       <use xlink:href="#mdc13752f96" x="601.767528" y="794.237812" style="fill: #6c7a8d; stroke: #6c7a8d; stroke-width: 0.8"/>
      </g>
     </g>
     <g id="text_48">
      <text style="font-size: 9px; font-family: 'Times New Roman', 'DejaVu Serif', serif; text-anchor: middle; fill: #6c7a8d" x="601.767528" y="808.076406" transform="rotate(-0 601.767528 808.076406)">4</text>
     </g>
    </g>
    <g id="xtick_22">
     <g id="line2d_79">
      <path d="M 672.327528 794.237812
L 672.327528 441.437812
" clip-path="url(#p521176d4b5)" style="fill: none; stroke: #b0b0b0; stroke-opacity: 0.3; stroke-width: 0.8; stroke-linecap: square"/>
     </g>
     <g id="line2d_80">
      <g>
       <use xlink:href="#mdc13752f96" x="672.327528" y="794.237812" style="fill: #6c7a8d; stroke: #6c7a8d; stroke-width: 0.8"/>
      </g>
     </g>
     <g id="text_49">
      <text style="font-size: 9px; font-family: 'Times New Roman', 'DejaVu Serif', serif; text-anchor: middle; fill: #6c7a8d" x="672.327528" y="808.076406" transform="rotate(-0 672.327528 808.076406)">6</text>
     </g>
    </g>
    <g id="xtick_23">
     <g id="line2d_81">
      <path d="M 742.887528 794.237812
L 742.887528 441.437812
" clip-path="url(#p521176d4b5)" style="fill: none; stroke: #b0b0b0; stroke-opacity: 0.3; stroke-width: 0.8; stroke-linecap: square"/>
     </g>
     <g id="line2d_82">
      <g>
       <use xlink:href="#mdc13752f96" x="742.887528" y="794.237812" style="fill: #6c7a8d; stroke: #6c7a8d; stroke-width: 0.8"/>
      </g>
     </g>
     <g id="text_50">
      <text style="font-size: 9px; font-family: 'Times New Roman', 'DejaVu Serif', serif; text-anchor: middle; fill: #6c7a8d" x="742.887528" y="808.076406" transform="rotate(-0 742.887528 808.076406)">8</text>
     </g>
    </g>
    <g id="xtick_24">
     <g id="line2d_83">
      <path d="M 813.447528 794.237812
L 813.447528 441.437812
" clip-path="url(#p521176d4b5)" style="fill: none; stroke: #b0b0b0; stroke-opacity: 0.3; stroke-width: 0.8; stroke-linecap: square"/>
     </g>
     <g id="line2d_84">
      <g>
       <use xlink:href="#mdc13752f96" x="813.447528" y="794.237812" style="fill: #6c7a8d; stroke: #6c7a8d; stroke-width: 0.8"/>
      </g>
     </g>
     <g id="text_51">
      <text style="font-size: 9px; font-family: 'Times New Roman', 'DejaVu Serif', serif; text-anchor: middle; fill: #6c7a8d" x="813.447528" y="808.076406" transform="rotate(-0 813.447528 808.076406)">10</text>
     </g>
    </g>
    <g id="text_52">
     <text style="font-size: 11px; font-family: 'Times New Roman', 'DejaVu Serif', serif; text-anchor: middle; fill: #2e3440" x="637.047528" y="822.306406" transform="rotate(-0 637.047528 822.306406)">X (μm)</text>
    </g>
   </g>
   <g id="matplotlib.axis_8">
    <g id="ytick_19">
     <g id="line2d_85">
      <path d="M 460.647528 794.237812
L 813.447528 794.237812
" clip-path="url(#p521176d4b5)" style="fill: none; stroke: #b0b0b0; stroke-opacity: 0.3; stroke-width: 0.8; stroke-linecap: square"/>
     </g>
     <g id="line2d_86">
      <g>
       <use xlink:href="#mcb11e1a937" x="460.647528" y="794.237812" style="fill: #6c7a8d; stroke: #6c7a8d; stroke-width: 0.8"/>
      </g>
     </g>
     <g id="text_53">
      <text style="font-size: 9px; font-family: 'Times New Roman', 'DejaVu Serif', serif; text-anchor: end; fill: #6c7a8d" x="453.647528" y="797.657109" transform="rotate(-0 453.647528 797.657109)">0</text>
     </g>
    </g>
    <g id="ytick_20">
     <g id="line2d_87">
      <path d="M 460.647528 723.677812
L 813.447528 723.677812
" clip-path="url(#p521176d4b5)" style="fill: none; stroke: #b0b0b0; stroke-opacity: 0.3; stroke-width: 0.8; stroke-linecap: square"/>
     </g>
     <g id="line2d_88">
      <g>
       <use xlink:href="#mcb11e1a937" x="460.647528" y="723.677812" style="fill: #6c7a8d; stroke: #6c7a8d; stroke-width: 0.8"/>
      </g>
     </g>
     <g id="text_54">
      <text style="font-size: 9px; font-family: 'Times New Roman', 'DejaVu Serif', serif; text-anchor: end; fill: #6c7a8d" x="453.647528" y="727.097109" transform="rotate(-0 453.647528 727.097109)">2</text>
     </g>
    </g>
    <g id="ytick_21">
     <g id="line2d_89">
      <path d="M 460.647528 653.117812
L 813.447528 653.117812
" clip-path="url(#p521176d4b5)" style="fill: none; stroke: #b0b0b0; stroke-opacity: 0.3; stroke-width: 0.8; stroke-linecap: square"/>
     </g>
     <g id="line2d_90">
      <g>
       <use xlink:href="#mcb11e1a937" x="460.647528" y="653.117812" style="fill: #6c7a8d; stroke: #6c7a8d; stroke-width: 0.8"/>
      </g>
     </g>
     <g id="text_55">
      <text style="font-size: 9px; font-family: 'Times New Roman', 'DejaVu Serif', serif; text-anchor: end; fill: #6c7a8d" x="453.647528" y="656.537109" transform="rotate(-0 453.647528 656.537109)">4</text>
     </g>
    </g>
    <g id="ytick_22">
     <g id="line2d_91">
      <path d="M 460.647528 582.557812
L 813.447528 582.557812
" clip-path="url(#p521176d4b5)" style="fill: none; stroke: #b0b0b0; stroke-opacity: 0.3; stroke-width: 0.8; stroke-linecap: square"/>
     </g>
     <g id="line2d_92">
      <g>
       <use xlink:href="#mcb11e1a937" x="460.647528" y="582.557812" style="fill: #6c7a8d; stroke: #6c7a8d; stroke-width: 0.8"/>
      </g>
     </g>
     <g id="text_56">
      <text style="font-size: 9px; font-family: 'Times New Roman', 'DejaVu Serif', serif; text-anchor: end; fill: #6c7a8d" x="453.647528" y="585.977109" transform="rotate(-0 453.647528 585.977109)">6</text>
     </g>
    </g>
    <g id="ytick_23">
     <g id="line2d_93">
      <path d="M 460.647528 511.997812
L 813.447528 511.997812
" clip-path="url(#p521176d4b5)" style="fill: none; stroke: #b0b0b0; stroke-opacity: 0.3; stroke-width: 0.8; stroke-linecap: square"/>
     </g>
     <g id="line2d_94">
      <g>
       <use xlink:href="#mcb11e1a937" x="460.647528" y="511.997812" style="fill: #6c7a8d; stroke: #6c7a8d; stroke-width: 0.8"/>
      </g>
     </g>
     <g id="text_57">
      <text style="font-size: 9px; font-family: 'Times New Roman', 'DejaVu Serif', serif; text-anchor: end; fill: #6c7a8d" x="453.647528" y="515.417109" transform="rotate(-0 453.647528 515.417109)">8</text>
     </g>
    </g>
    <g id="ytick_24">
     <g id="line2d_95">
      <path d="M 460.647528 441.437812
L 813.447528 441.437812
" clip-path="url(#p521176d4b5)" style="fill: none; stroke: #b0b0b0; stroke-opacity: 0.3; stroke-width: 0.8; stroke-linecap: square"/>
     </g>
     <g id="line2d_96">
      <g>
       <use xlink:href="#mcb11e1a937" x="460.647528" y="441.437812" style="fill: #6c7a8d; stroke: #6c7a8d; stroke-width: 0.8"/>
      </g>
     </g>
     <g id="text_58">
      <text style="font-size: 9px; font-family: 'Times New Roman', 'DejaVu Serif', serif; text-anchor: end; fill: #6c7a8d" x="453.647528" y="444.857109" transform="rotate(-0 453.647528 444.857109)">10</text>
     </g>
    </g>
    <g id="text_59">
     <text style="font-size: 11px; font-family: 'Times New Roman', 'DejaVu Serif', serif; text-anchor: middle; fill: #2e3440" x="435.907372" y="617.837812" transform="rotate(-90 435.907372 617.837812)">Y (μm)</text>
    </g>
   </g>
   <g id="patch_101">
    <path d="M 460.647528 794.237812
L 460.647528 441.437812
" style="fill: none; stroke: #6c7a8d; stroke-width: 0.8; stroke-linejoin: miter; stroke-linecap: square"/>
   </g>
   <g id="patch_102">
    <path d="M 813.447528 794.237812
L 813.447528 441.437812
" style="fill: none; stroke: #6c7a8d; stroke-width: 0.8; stroke-linejoin: miter; stroke-linecap: square"/>
   </g>
   <g id="patch_103">
    <path d="M 460.647528 794.237812
L 813.447528 794.237812
" style="fill: none; stroke: #6c7a8d; stroke-width: 0.8; stroke-linejoin: miter; stroke-linecap: square"/>
   </g>
   <g id="patch_104">
    <path d="M 460.647528 441.437812
L 813.447528 441.437812
" style="fill: none; stroke: #6c7a8d; stroke-width: 0.8; stroke-linejoin: miter; stroke-linecap: square"/>
   </g>
   <g id="text_60">
    <text style="font-weight: 700; font-size: 14px; font-family: 'Times New Roman', 'DejaVu Serif', serif; text-anchor: middle; fill: #2e3440" x="637.047528" y="435.437812" transform="rotate(-0 637.047528 435.437812)">Carbon Nanotubes</text>
   </g>
  </g>
 </g>
 <defs>
  <clipPath id="p32c07321f8">
   <rect x="34.538438" y="18.077812" width="352.8" height="352.8"/>
  </clipPath>
  <clipPath id="p3096ecfd61">
   <rect x="460.647528" y="18.077812" width="352.8" height="352.8"/>
  </clipPath>
  <clipPath id="pb5e59cc171">
   <rect x="34.538438" y="441.437812" width="352.8" height="352.8"/>
  </clipPath>
  <clipPath id="p521176d4b5">
   <rect x="460.647528" y="441.437812" width="352.8" height="352.8"/>
  </clipPath>
 </defs>
</svg>
